<?xml version="1.0" encoding="utf-8"?>
<!-- Generator: Adobe Illustrator 24.2.0, SVG Export Plug-In . SVG Version: 6.00 Build 0)  -->
<svg version="1.0" id="图层_1" xmlns="http://www.w3.org/2000/svg" xmlns:xlink="http://www.w3.org/1999/xlink" x="0px" y="0px"
	 viewBox="0 0 566.93 566.93" enable-background="new 0 0 566.93 566.93" xml:space="preserve">
<g>
	<polygon fill="#0081CC" points="469.68,108.05 379.4,187.86 290.57,229.78 209.51,318.33 301.85,318.33 	"/>
	<path fill="#0081CC" d="M566.93,0c0,0-43.07,39.54-125.08,90.9c-46.73-39.05-106.9-62.55-172.56-62.55
		C120.56,28.34,0,148.91,0,297.63c0,148.73,120.56,269.3,269.29,269.3c148.73,0,269.29-120.57,269.29-269.3
		c0-49.51-13.41-95.86-36.72-135.72C516.21,111.14,536.95,55.09,566.93,0z M307.44,56.27c46.71,0,89.89,15.01,125.07,40.41
		C352.87,145.65,239.08,204.11,94.49,249.2C105.08,140.9,196.37,56.27,307.44,56.27z M521.45,270.28c0,118.19-95.82,214-214,214
		s-214-95.82-214-214c0-7,0.36-13.91,1.02-20.74l135.79,37.93l56.24-61.43l0.73-0.8l0.99-0.47l88.12-41.59l89.69-79.29l47.79-42.24
		L320.4,303.97l149.63,41.8c1.22-22.92,6.48-89.51,28.5-171.78C513.17,202.93,521.45,235.63,521.45,270.28z"/>
	<path fill="#0081CC" d="M231.9,369.27l-21.78,55.92h11.98l4.62-12.7h22.35l4.88,12.7h12.28l-22.39-55.92H231.9z M230.18,403.07
		l7.55-20.75l7.71,20.75H230.18z"/>
	<polygon fill="#0081CC" points="294.29,410.66 280.14,369.27 267.89,369.27 287.88,425.2 299.94,425.2 319.97,369.27 
		307.99,369.27 	"/>
	<rect x="332.57" y="369.27" fill="#0081CC" width="11.29" height="55.92"/>
	<path fill="#0081CC" d="M392.94,413.64c-2.16,1.91-4.74,2.86-7.74,2.86c-4.07,0-7.38-1.5-9.92-4.5c-2.54-3-3.81-8.04-3.81-15.11
		c0-6.66,1.29-11.48,3.87-14.46c2.58-2.97,5.94-4.46,10.09-4.46c3,0,5.55,0.84,7.65,2.52c2.1,1.68,3.48,3.97,4.14,6.87l11.18-2.67
		c-1.27-4.47-3.18-7.91-5.72-10.3c-4.27-4.04-9.83-6.07-16.67-6.07c-7.83,0-14.15,2.57-18.96,7.72c-4.81,5.15-7.21,12.38-7.21,21.69
		c0,8.8,2.39,15.74,7.17,20.81c4.78,5.08,10.88,7.61,18.31,7.61c6,0,10.95-1.48,14.86-4.45c3.9-2.96,6.7-7.5,8.37-13.6l-10.95-3.47
		C396.65,408.73,395.1,411.73,392.94,413.64z"/>
</g>
</svg>
