<?xml version="1.0" encoding="utf-8"?>
<!-- Generator: Adobe Illustrator 24.2.0, SVG Export Plug-In . SVG Version: 6.00 Build 0)  -->
<svg version="1.0" id="图层_1" xmlns="http://www.w3.org/2000/svg" xmlns:xlink="http://www.w3.org/1999/xlink" x="0px" y="0px"
	 viewBox="0 0 24 24" enable-background="new 0 0 24 24" xml:space="preserve">
<path d="M22.8,6.6l-4.2-4.2c-0.4-0.4-1-0.4-1.4,0L14.5,5h-5L6.9,2.4C6.5,2,5.9,2,5.5,2.4L1.2,6.6c-0.4,0.4-0.4,1,0,1.4L5,11.8V21
	c0,0.6,0.4,1,1,1h12c0.6,0,1-0.4,1-1v-9.2l3.8-3.8C23.2,7.7,23.2,7,22.8,6.6z M17,11v9H7v-9L3.3,7.3l2.8-2.8L8.7,7h6.7l2.5-2.5
	l2.8,2.8L17,11z"/>
</svg>
