<?xml version="1.0" encoding="utf-8"?>
<!-- Generator: Adobe Illustrator 16.0.0, SVG Export Plug-In . SVG Version: 6.00 Build 0)  -->
<!DOCTYPE svg PUBLIC "-//W3C//DTD SVG 1.1//EN" "http://www.w3.org/Graphics/SVG/1.1/DTD/svg11.dtd">
<svg version="1.1" id="图层_1" xmlns="http://www.w3.org/2000/svg" xmlns:xlink="http://www.w3.org/1999/xlink" x="0px" y="0px"
	 width="300px" height="300px" viewBox="0 0 300 300" enable-background="new 0 0 300 300" xml:space="preserve">
<g>
	<g>
		<path fill-rule="evenodd" clip-rule="evenodd" fill="none" d="M302.607,152.143c0,49-0.034,98,0.083,147
			c0.007,2.982-0.602,3.585-3.583,3.582c-98.334-0.1-196.667-0.099-295,0c-2.982,0.003-3.584-0.6-3.582-3.582
			c0.099-98.333,0.099-196.667,0-295c-0.003-2.982,0.6-3.585,3.582-3.582c98.333,0.099,196.666,0.099,295,0
			c2.981-0.003,3.59,0.6,3.583,3.582C302.573,53.476,302.607,102.81,302.607,152.143z M4.542,150.925
			c-0.134,81.476,65.381,147.329,146.734,147.489c81.837,0.161,147.894-65.301,148.081-146.749
			C299.546,69.641,233.992,3.811,152.019,3.707C70.238,3.603,4.677,69.048,4.542,150.925z"/>
		<path fill-rule="evenodd" clip-rule="evenodd" d="M4.542,150.925C4.677,69.048,70.238,3.603,152.019,3.707
			c81.973,0.104,147.527,65.935,147.338,147.959c-0.188,81.448-66.244,146.91-148.081,146.749
			C69.922,298.254,4.407,232.401,4.542,150.925z M5.744,150.536c0.428,67.637,55.12,121.691,122.792,121.36
			c66.236-0.323,120.577-55.62,120.274-122.386c-0.305-67.059-55.217-120.769-123.047-120.353
			C59.597,29.564,5.326,84.449,5.744,150.536z"/>
		<path fill-rule="evenodd" clip-rule="evenodd" fill="none" d="M5.744,150.536C5.326,84.449,59.597,29.564,125.763,29.158
			c67.83-0.416,122.742,53.294,123.047,120.353c0.303,66.766-54.038,122.063-120.274,122.386
			C60.863,272.227,6.171,218.173,5.744,150.536z M89,104.882c-2.211,0.008-3.123,1.544-4.2,2.679
			c-5.339,5.626-9.42,12.043-12.004,19.394c-11.125,31.645,10.437,70.196,43.908,78.477c23.65,5.852,49.311-6.404,58.949-28.346
			c6.108-13.907,5.019-27.44-3.883-39.765c-8.214-11.371-20.162-14.305-34.305-13.214c13.627,2.543,22.979,9.086,26.405,22.242
			c5.866,22.529-13.144,47.036-41.186,43.029c-22.35-3.192-39.823-24.274-40.421-46.892C81.919,129.526,84.459,117.106,89,104.882z
			 M130.215,233.05c-38.259-2.51-69.208-27.28-79.561-63.066c-9.858-34.073,3.044-80.258,46.127-101.74
			c-42.481,8.402-71.105,53.116-62.792,98.088C42.161,210.534,85.652,240.689,130.215,233.05z M141.365,91.096
			c25.409-0.934,45.446,8.281,57.697,29.857c16.603,29.239,10.041,55.734-13.874,79.453c27.092-12.637,39.605-47.005,27.938-75.191
			C200.828,95.507,169.046,82.659,141.365,91.096z M111.694,137.383c-4.416,6.961-4.751,14.209-0.627,21.373
			c4.459,7.745,11.426,11.087,21.046,10.465C114.183,165.57,107.305,152.012,111.694,137.383z"/>
		<path fill-rule="evenodd" clip-rule="evenodd" d="M89,104.882c-4.541,12.224-7.081,24.644-6.738,37.604
			c0.599,22.618,18.072,43.7,40.421,46.892c28.042,4.007,47.052-20.5,41.186-43.029c-3.426-13.156-12.777-19.699-26.405-22.242
			c14.143-1.091,26.091,1.843,34.305,13.214c8.901,12.325,9.991,25.858,3.883,39.765c-9.638,21.941-35.298,34.197-58.949,28.346
			c-33.471-8.281-55.032-46.833-43.908-78.477c2.584-7.351,6.666-13.768,12.004-19.394C85.877,106.426,86.79,104.89,89,104.882z"/>
		<path fill-rule="evenodd" clip-rule="evenodd" d="M130.215,233.05c-44.563,7.639-88.054-22.516-96.225-66.718
			c-8.313-44.972,20.311-89.686,62.792-98.088c-43.083,21.481-55.985,67.667-46.127,101.74
			C61.008,205.77,91.957,230.54,130.215,233.05z"/>
		<path fill-rule="evenodd" clip-rule="evenodd" d="M141.365,91.096c27.682-8.438,59.463,4.411,71.761,34.119
			c11.668,28.186-0.846,62.554-27.938,75.191c23.915-23.719,30.477-50.213,13.874-79.453
			C186.811,99.377,166.774,90.163,141.365,91.096z"/>
		<path fill-rule="evenodd" clip-rule="evenodd" d="M111.694,137.383c-4.389,14.629,2.489,28.187,20.419,31.838
			c-9.62,0.622-16.587-2.72-21.046-10.465C106.942,151.592,107.278,144.344,111.694,137.383z"/>
	</g>
</g>
</svg>
