<?xml version="1.0" standalone="no"?><!DOCTYPE svg PUBLIC "-//W3C//DTD SVG 1.1//EN" "http://www.w3.org/Graphics/SVG/1.1/DTD/svg11.dtd"><svg t="1608606540881" class="icon" viewBox="0 0 1024 1024" version="1.1" xmlns="http://www.w3.org/2000/svg" p-id="13450" xmlns:xlink="http://www.w3.org/1999/xlink" width="200" height="200"><defs><style type="text/css"></style></defs><path d="M879 183H135.8c-8.8 0-15.9 7.1-15.9 15.9v495.6c0 8.9 7.2 16.1 16.1 16.1h341.1v81.5h-96.7c-8.9 0-16.1 7.2-16.1 16.1v38.2c0 8.9 7.2 16.1 16.1 16.1h264c8.9 0 16.1-7.2 16.1-16.1v-38.2c0-8.9-7.2-16.1-16.1-16.1h-96.7v-81.5h331c8.9 0 16.1-7.2 16.1-16.1V198.9c0.1-8.8-7-15.9-15.8-15.9zM383.8 550.3c4.6 4.6 4.6 12.1 0 16.7l-20 20c-4.6 4.6-12.1 4.6-16.7 0L213.8 453.6c-4.6-4.6-4.6-12.1 0-16.7l28.3-28.3 105.1-105.1c4.6-4.6 12.1-4.6 16.7 0l20 20c4.6 4.6 4.6 12.1 0 16.7l-105.1 105 105 105.1z m186.2-233l-75.1 280.2c-2.3 8.6-11.1 13.7-19.7 11.4l-19.1-5.1c-8.6-2.3-13.7-11.1-11.4-19.7l75.1-280.2c2.3-8.6 11.1-13.7 19.7-11.4l19.1 5.1c8.6 2.3 13.7 11.1 11.4 19.7z m231.1 136.3L667.7 586.9c-4.6 4.6-12.1 4.6-16.7 0l-20-20c-4.6-4.6-4.6-12.1 0-16.7l105-105-105.1-105.1c-4.6-4.6-4.6-12.1 0-16.7l20-20c4.6-4.6 12.1-4.6 16.7 0l105.1 105.1 28.3 28.3c4.7 4.7 4.7 12.2 0.1 16.8z"  p-id="13451"></path></svg>