<?xml version="1.0" standalone="no"?><!DOCTYPE svg PUBLIC "-//W3C//DTD SVG 1.1//EN" "http://www.w3.org/Graphics/SVG/1.1/DTD/svg11.dtd"><svg t="1608606386161" class="icon" viewBox="0 0 1024 1024" version="1.1" xmlns="http://www.w3.org/2000/svg" p-id="12729" xmlns:xlink="http://www.w3.org/1999/xlink" width="200" height="200"><defs><style type="text/css"></style></defs><path d="M832.6 185.8h-163v-22.3c0-8.9-7.2-16.1-16.1-16.1h-88.9c-4.8-24.6-26.4-43.1-52.3-43.1-26 0-47.6 18.6-52.3 43.1h-77.3c-8.9 0-16.1 7.2-16.1 16.1v22.3H191.8c-8.8 0-15.9 7.1-15.9 15.9V865c0 8.8 7.1 15.9 15.9 15.9h640.8c8.8 0 15.9-7.1 15.9-15.9V201.8c0-8.8-7.1-16-15.9-16z m-320.4-6.6c19.5 0 35.2 15.8 35.2 35.2 0 19.5-15.8 35.2-35.2 35.2-19.5 0-35.2-15.8-35.2-35.2-0.1-19.5 15.7-35.2 35.2-35.2z m269 565.1c0 8.8-7.2 16-16 16H258.6c-8.8 0-16-7.2-16-16v-38.5c0-8.8 7.2-16 16-16h506.6c8.8 0 16 7.2 16 16v38.5z m0-168.1c0 8.8-7.1 15.9-15.9 15.9H258.5c-8.8 0-15.9-7.1-15.9-15.9v-38.7c0-8.8 7.1-15.9 15.9-15.9h506.8c8.8 0 15.9 7.1 15.9 15.9v38.7z"  p-id="12730"></path></svg>