<?xml version="1.0" standalone="no"?><!DOCTYPE svg PUBLIC "-//W3C//DTD SVG 1.1//EN"
  "http://www.w3.org/Graphics/SVG/1.1/DTD/svg11.dtd">
<svg t="1608606380209" class="icon" viewBox="0 0 1024 1024" version="1.1" xmlns="http://www.w3.org/2000/svg"
     p-id="12441" xmlns:xlink="http://www.w3.org/1999/xlink" width="200" height="200">
  <defs>
    <style type="text/css"></style>
  </defs>
  <path
    d="M884.7 183H141.5c-8.8 0-15.9 7.1-15.9 15.9v495.6c0 8.9 7.2 16.1 16.1 16.1h341.1v81.5h-96.7c-8.9 0-16.1 7.2-16.1 16.1v38.2c0 8.9 7.2 16.1 16.1 16.1h264c8.9 0 16.1-7.2 16.1-16.1v-38.2c0-8.9-7.2-16.1-16.1-16.1h-96.7v-81.5h331c8.9 0 16.1-7.2 16.1-16.1V198.9c0-8.8-7.1-15.9-15.8-15.9z m-87.2 168.5L615.9 566.3c-5.4 6.4-14.8 7.5-21.6 2.6L422 443.6c-6.7-4.9-16-3.8-21.4 2.4L279.2 585c-5.8 6.6-15.9 7.3-22.5 1.5l-29.1-25.4c-6.6-5.8-7.3-15.9-1.5-22.5L389.9 351c5.4-6.2 14.7-7.3 21.4-2.4l171.5 124.6c6.8 4.9 16.2 3.8 21.6-2.6l139.3-164.7c5.7-6.7 15.7-7.6 22.5-1.9l29.5 24.9c6.6 5.8 7.5 15.8 1.8 22.6z"
    p-id="12442"></path>
</svg>