<?xml version="1.0" standalone="no"?><!DOCTYPE svg PUBLIC "-//W3C//DTD SVG 1.1//EN" "http://www.w3.org/Graphics/SVG/1.1/DTD/svg11.dtd"><svg t="1608606383490" class="icon" viewBox="0 0 1024 1024" version="1.1" xmlns="http://www.w3.org/2000/svg" p-id="12585" xmlns:xlink="http://www.w3.org/1999/xlink" width="200" height="200"><defs><style type="text/css"></style></defs><path d="M848 607.5h-76.8V496.1c0-8.9-7.2-16.1-16.1-16.1H548.3v-64.3h75.8c8.9 0 16-7.2 16-16v-224c0-8.9-7.2-16-16-16h-224c-8.9 0-16 7.2-16 16v224c0 8.9 7.2 16 16 16h77.8V480H269.1c-8.9 0-16.1 7.2-16.1 16.1v111.4h-76.8c-8.9 0-16 7.2-16 16v223.9c0 8.9 7.2 16 16 16h223.9c8.9 0 16-7.2 16-16V623.6c0-8.9-7.2-16-16-16h-76.8v-41c0-8.9 7.2-16.1 16.1-16.1h345.3c8.9 0 16.1 7.2 16.1 16.1v41H624c-8.9 0-16 7.2-16 16v223.9c0 8.9 7.2 16 16 16h224c8.9 0 16-7.2 16-16V623.6c0-8.9-7.2-16.1-16-16.1z"  p-id="12586"></path></svg>