<?xml version="1.0" standalone="no"?><!DOCTYPE svg PUBLIC "-//W3C//DTD SVG 1.1//EN" "http://www.w3.org/Graphics/SVG/1.1/DTD/svg11.dtd"><svg t="1608606363997" class="icon" viewBox="0 0 1024 1024" version="1.1" xmlns="http://www.w3.org/2000/svg" p-id="12008" xmlns:xlink="http://www.w3.org/1999/xlink" width="200" height="200"><defs><style type="text/css"></style></defs><path d="M814 553.5H494.5c-8.7 0-15.7-7.1-15.7-15.7V209.3c0-8.8-7.4-16.1-16.1-15.7-199.2 9.5-355 185.1-331.8 391.4C148.7 744.6 278 874.5 437.6 893.1c203.9 23.7 377.8-127.5 392-323 0.7-9-6.6-16.6-15.6-16.6z"  p-id="12009"></path><path d="M561 129.5c-11.9-0.8-16 9.3-16 15.6v328.8c0 8.6 7 15.6 15.6 15.6h320.5c11.2 0 15.9-6.5 15.9-15.9-3.5-185.7-151.3-336.2-336-344.1z"  p-id="12010"></path></svg>