<?xml version="1.0" standalone="no"?><!DOCTYPE svg PUBLIC "-//W3C//DTD SVG 1.1//EN" "http://www.w3.org/Graphics/SVG/1.1/DTD/svg11.dtd"><svg t="1608606551792" class="icon" viewBox="0 0 1024 1024" version="1.1" xmlns="http://www.w3.org/2000/svg" p-id="13738" xmlns:xlink="http://www.w3.org/1999/xlink" width="200" height="200"><defs><style type="text/css"></style></defs><path d="M564.1 735.2c149.2-24.3 263.1-153.6 263.1-309.6 0-176.5-145.7-319-323.3-313.8-169 4.9-307.3 150-304.5 319.1 2.6 153.1 114.8 279.3 261.5 304 8.2 1.4 14.3 8.2 14.3 16.5V773c0 9.4-7.6 16.9-16.9 16.9H327c-9.3 0-16.8 7.5-16.8 16.8v40.9c0 9.3 7.5 16.8 16.8 16.8h372.6c9.3 0 16.8-7.5 16.8-16.8v-40.9c0-9.3-7.5-16.8-16.8-16.8h-133c-9.4 0-16.9-7.6-16.9-16.9v-21.3c0-8.4 6.1-15.2 14.4-16.5z m-50.9-30.4c-133.5 0-242-108.6-242-242s108.6-242 242-242c133.5 0 242 108.6 242 242s-108.5 242-242 242z"  p-id="13739"></path><path d="M343.933288 490.261827a171.5 171.5 0 1 0 338.575288-54.916069 171.5 171.5 0 1 0-338.575288 54.916069Z"  p-id="13740"></path></svg>