<?xml version="1.0" standalone="no"?><!DOCTYPE svg PUBLIC "-//W3C//DTD SVG 1.1//EN" "http://www.w3.org/Graphics/SVG/1.1/DTD/svg11.dtd"><svg t="1608606376388" class="icon" viewBox="0 0 1024 1024" version="1.1" xmlns="http://www.w3.org/2000/svg" p-id="12297" xmlns:xlink="http://www.w3.org/1999/xlink" width="200" height="200"><defs><style type="text/css"></style></defs><path d="M847.8 159.7H175.7c-8.9 0-16.1 7.2-16.1 16.1v159.9c0 8.9 7.2 16.1 16.1 16.1h672.1c8.9 0 16.1-7.2 16.1-16.1V175.8c0-8.9-7.2-16.1-16.1-16.1z m-317 115.2c0 8.9-7.2 16.1-16.1 16.1h-38.3c-8.9 0-16.1-7.2-16.1-16.1v-38.3c0-8.9 7.2-16.1 16.1-16.1h38.3c8.9 0 16.1 7.2 16.1 16.1v38.3z m262.7 0c0 8.9-7.2 16.1-16.1 16.1h-160c-8.9 0-16.1-7.2-16.1-16.1v-38.3c0-8.9 7.2-16.1 16.1-16.1h160c8.9 0 16.1 7.2 16.1 16.1v38.3zM847.8 415.4H175.7c-8.9 0-16.1 7.2-16.1 16.1v159.9c0 8.9 7.2 16.1 16.1 16.1h672.1c8.9 0 16.1-7.2 16.1-16.1V431.5c0-8.9-7.2-16.1-16.1-16.1z m-317 115.2c0 8.9-7.2 16.1-16.1 16.1h-38.3c-8.9 0-16.1-7.2-16.1-16.1v-38.3c0-8.9 7.2-16.1 16.1-16.1h38.3c8.9 0 16.1 7.2 16.1 16.1v38.3z m262.7 0c0 8.9-7.2 16.1-16.1 16.1h-160c-8.9 0-16.1-7.2-16.1-16.1v-38.3c0-8.9 7.2-16.1 16.1-16.1h160c8.9 0 16.1 7.2 16.1 16.1v38.3zM847.8 672.2H175.7c-8.9 0-16.1 7.2-16.1 16.1v159.9c0 8.9 7.2 16.1 16.1 16.1h672.1c8.9 0 16.1-7.2 16.1-16.1V688.3c0-8.9-7.2-16.1-16.1-16.1z m-317 115.2c0 8.9-7.2 16.1-16.1 16.1h-38.3c-8.9 0-16.1-7.2-16.1-16.1v-38.3c0-8.9 7.2-16.1 16.1-16.1h38.3c8.9 0 16.1 7.2 16.1 16.1v38.3z m262.7 0c0 8.9-7.2 16.1-16.1 16.1h-160c-8.9 0-16.1-7.2-16.1-16.1v-38.3c0-8.9 7.2-16.1 16.1-16.1h160c8.9 0 16.1 7.2 16.1 16.1v38.3z"  p-id="12298"></path></svg>