<?xml version="1.0" standalone="no"?><!DOCTYPE svg PUBLIC "-//W3C//DTD SVG 1.1//EN"
  "http://www.w3.org/Graphics/SVG/1.1/DTD/svg11.dtd">
<svg class="icon" viewBox="0 0 1024 1024" version="1.1" xmlns="http://www.w3.org/2000/svg">
  <path
    d="M540.125 547.442v217.683A28.125 28.125 0 0 1 512 793.25a27.576 27.576 0 0 1-28.125-28.125V547.442L287 433.81a28.125 28.125 0 0 1-10.13-38.243 27.565 27.565 0 0 1 38.255-10.13L512 497.938l195.183-112.5a27.565 27.565 0 0 1 38.254 10.13 28.114 28.114 0 0 1-10.129 38.244l-195.183 112.5z m0 0M118.25 287v450L512 962l393.75-225V287L512 62zM849.5 708.875L512 905.75 174.5 708.875v-393.75L512 118.25l337.5 196.875z m0 0"/>
</svg>