<?xml version="1.0" standalone="no"?><!DOCTYPE svg PUBLIC "-//W3C//DTD SVG 1.1//EN" "http://www.w3.org/Graphics/SVG/1.1/DTD/svg11.dtd"><svg t="1608606394195" class="icon" viewBox="0 0 1024 1024" version="1.1" xmlns="http://www.w3.org/2000/svg" p-id="13017" xmlns:xlink="http://www.w3.org/1999/xlink" width="200" height="200"><defs><style type="text/css"></style></defs><path d="M513.1 501.2c69.5 0 125.8-56.3 125.8-125.8s-56.3-125.8-125.8-125.8-125.8 56.3-125.8 125.8 56.3 125.8 125.8 125.8zM473.7 528.5c-101.8 0-184.4 82.6-184.4 184.4 0 7.5 6.1 13.6 13.6 13.6H722c7.5 0 13.6-6.1 13.6-13.6 0-101.8-82.6-184.4-184.4-184.4h-77.5zM175.2 351.9h38.6c8.8 0 15.9-7.1 15.9-15.9V230.1h105.8c8.8 0 15.9-7.1 15.9-15.9v-38.6c0-8.8-7.1-15.9-15.9-15.9H175.2c-8.8 0-15.9 7.1-15.9 15.9V336c0 8.7 7.1 15.9 15.9 15.9zM335.6 793.9H229.8V688.1c0-8.8-7.1-15.9-15.9-15.9h-38.6c-8.8 0-15.9 7.1-15.9 15.9v160.4c0 8.8 7.1 15.9 15.9 15.9h160.4c8.8 0 15.9-7.1 15.9-15.9v-38.6c-0.1-8.9-7.2-16-16-16zM847.5 159.7h-160c-8.9 0-16.1 7.2-16.1 16.1v38.3c0 8.9 7.2 16.1 16.1 16.1h105.6v105.6c0 8.9 7.2 16.1 16.1 16.1h38.3c8.9 0 16.1-7.2 16.1-16.1V175.7c0-8.8-7.2-16-16.1-16zM847.6 672.2h-38.4c-8.9 0-16 7.2-16 16v105.7H687.4c-8.9 0-16 7.2-16 16v38.4c0 8.9 7.2 16 16 16h160.1c8.9 0 16-7.2 16-16V688.2c0.1-8.8-7.1-16-15.9-16z"  p-id="13018"></path></svg>