<?xml version="1.0" standalone="no"?><!DOCTYPE svg PUBLIC "-//W3C//DTD SVG 1.1//EN"
  "http://www.w3.org/Graphics/SVG/1.1/DTD/svg11.dtd">
<svg t="1608606546264" class="icon" viewBox="0 0 1024 1024" version="1.1" xmlns="http://www.w3.org/2000/svg"
     p-id="13594" xmlns:xlink="http://www.w3.org/1999/xlink" width="200" height="200">
  <defs>
    <style type="text/css"></style>
  </defs>
  <path
    d="M89.4 218.5v192c56.4 0 102.1 45.7 102.1 102.1 0 56.4-45.7 102.1-102.1 102.1v192c0 9.3 7.5 16.8 16.8 16.8h132.5V201.6H106.3c-9.3 0-16.9 7.6-16.9 16.9zM930.5 410.4v-192c0-9.3-7.5-16.8-16.8-16.8H305.9v621.8h607.8c9.3 0 16.8-7.5 16.8-16.8v-192c-56.4 0-102.1-45.7-102.1-102.1 0-56.4 45.7-102.1 102.1-102.1zM687 629.2c0 8.8-7.1 15.9-15.9 15.9H446.7c-8.8 0-15.9-7.1-15.9-15.9v-38.6c0-8.8 7.1-15.9 15.9-15.9H671c8.8 0 15.9 7.1 15.9 15.9v38.6z m0-201.5c0 8.8-7.1 15.9-15.9 15.9H446.7c-8.8 0-15.9-7.1-15.9-15.9v-38.6c0-8.8 7.1-15.9 15.9-15.9H671c8.8 0 15.9 7.1 15.9 15.9v38.6z"
    p-id="13595"></path>
</svg>