<?xml version="1.0" standalone="no"?><!DOCTYPE svg PUBLIC "-//W3C//DTD SVG 1.1//EN" "http://www.w3.org/Graphics/SVG/1.1/DTD/svg11.dtd"><svg t="1608606373317" class="icon" viewBox="0 0 1024 1024" version="1.1" xmlns="http://www.w3.org/2000/svg" p-id="12153" xmlns:xlink="http://www.w3.org/1999/xlink" width="200" height="200"><defs><style type="text/css"></style></defs><path d="M837.1 132.7H231.4c-8.9 0-16.1 7.2-16.1 16.1v132.9h-39.5c-8.8 0-16 7.2-16 16v38.5c0 8.8 7.2 16 16 16h39.5v124.6h-39.5c-8.8 0-16 7.2-16 16v38.4c0 8.8 7.2 16 16 16h39.5v124.6h-39.5c-8.8 0-16 7.1-16 16v38.5c0 8.8 7.1 16 16 16h39.5v132.9c0 8.9 7.2 16.1 16.1 16.1h605.7c8.9 0 16.1-7.2 16.1-16.1V148.8c0-8.9-7.2-16.1-16.1-16.1zM367 799.3c0 8.9-7.2 16.2-16.2 16.2h-43.5c-8.9 0-16.2-7.2-16.2-16.2v-57H311c8.8 0 16-7.1 16-16v-38.5c0-8.8-7.1-16-16-16h-19.9V547.3h19.8c8.8 0 16-7.2 16-16v-38.4c0-8.8-7.2-16-16-16h-19.8V352.2h19.8c8.8 0 16-7.2 16-16v-38.5c0-8.8-7.2-16-16-16h-19.8v-55.5c0-8.9 7.2-16.2 16.2-16.2h43.5c8.9 0 16.2 7.2 16.2 16.2v573.1z"  p-id="12154"></path></svg>