<?xml version="1.0" standalone="no"?><!DOCTYPE svg PUBLIC "-//W3C//DTD SVG 1.1//EN" "http://www.w3.org/Graphics/SVG/1.1/DTD/svg11.dtd"><svg t="1608606602513" class="icon" viewBox="0 0 1024 1024" version="1.1" xmlns="http://www.w3.org/2000/svg" p-id="13883" xmlns:xlink="http://www.w3.org/1999/xlink" width="200" height="200"><defs><style type="text/css"></style></defs><path d="M847.6 794h-64.7V517.1c0-148.6-121.6-270.1-270.1-270.1-148.6 0-270.1 121.6-270.1 270.1V794H176c-8.9 0-16.1 7.2-16.1 16.1v38.1c0 8.9 7.2 16.1 16.1 16.1h671.7c8.9 0 16.1-7.2 16.1-16.1v-38.1c-0.1-8.9-7.3-16.1-16.2-16.1zM388.8 555.8L482 403.5c8.4-13.8 29.6-7.8 29.6 8.3v100c0 8.8 7.2 16 16 16h94.8c12.5 0 20.2 13.8 13.6 24.4l-94.8 152c-8.5 13.6-29.5 7.6-29.5-8.5v-99.6c0-8.8-7.2-16-16-16h-93.1c-12.6 0.1-20.3-13.6-13.8-24.3zM505.8 222.2h12.6c8.9 0 16.1-7.2 16.1-16.1v-63.6c0-8.9-7.2-16.1-16.1-16.1h-12.6c-8.9 0-16.1 7.2-16.1 16.1v63.6c-0.1 8.9 7.2 16.1 16.1 16.1zM631.3 247.3l11.4 5.3c8.1 3.8 17.6 0.3 21.4-7.8l27-57.9c3.8-8.1 0.3-17.6-7.8-21.4l-11.4-5.3c-8.1-3.8-17.6-0.3-21.4 7.8l-27 57.9c-3.7 8.1-0.2 17.6 7.8 21.4zM742.7 332.8c5.7 6.8 15.8 7.7 22.6 2l49-41.1c6.8-5.7 7.7-15.8 2-22.6l-8.2-9.8c-5.7-6.8-15.8-7.7-22.6-2l-49 41.1c-6.8 5.7-7.7 15.8-2 22.5l8.2 9.9zM360 244.8c3.7 8 13.3 11.5 21.3 7.7l11.6-5.4c8-3.7 11.5-13.3 7.7-21.3l-27-58c-3.7-8-13.3-11.5-21.3-7.7l-11.6 5.4c-8 3.7-11.5 13.3-7.7 21.3l27 58zM258.9 334.7c6.7 5.6 16.8 4.8 22.4-2l8.4-10c5.6-6.7 4.8-16.8-2-22.4L238.5 259c-6.7-5.6-16.8-4.8-22.4 2l-8.4 10c-5.6 6.7-4.8 16.8 2 22.4l49.2 41.3z"  p-id="13884"></path></svg>