<?xml version="1.0" standalone="no"?><!DOCTYPE svg PUBLIC "-//W3C//DTD SVG 1.1//EN" "http://www.w3.org/Graphics/SVG/1.1/DTD/svg11.dtd"><svg class="icon" viewBox="0 0 1024 1024" version="1.1" xmlns="http://www.w3.org/2000/svg"><path d="M375.466667 136.533333h-227.555556c-34.133333 0-56.888889 22.755556-56.888889 56.888889v227.555556c0 34.133333 22.755556 56.888889 56.888889 56.888889h227.555556c34.133333 0 56.888889-22.755556 56.888889-56.888889v-227.555556c0-28.444444-28.444444-56.888889-56.888889-56.888889z m0 284.444445h-227.555556v-227.555556h227.555556v227.555556z m0 170.666666h-227.555556c-34.133333 0-56.888889 22.755556-56.888889 56.888889v227.555556c0 34.133333 22.755556 56.888889 56.888889 56.888889h227.555556c34.133333 0 56.888889-22.755556 56.888889-56.888889v-227.555556c0-28.444444-28.444444-56.888889-56.888889-56.888889z m0 284.444445h-227.555556v-227.555556h227.555556v227.555556z m540.444444-608.711111l-159.288889-159.288889c-22.755556-22.755556-56.888889-22.755556-79.644444 0L517.688889 267.377778c-22.755556 22.755556-22.755556 56.888889 0 79.644444l159.288889 159.288889c11.377778 11.377778 28.444444 17.066667 39.822222 17.066667s28.444444-5.688889 39.822222-17.066667l159.288889-159.288889c22.755556-22.755556 22.755556-56.888889 0-79.644444z m-199.111111 199.111111L557.511111 307.2l159.288889-159.288889 159.288889 159.288889-159.288889 159.288889z m113.777778 125.155555h-227.555556c-34.133333 0-56.888889 22.755556-56.888889 56.888889v227.555556c0 34.133333 22.755556 56.888889 56.888889 56.888889h227.555556c34.133333 0 56.888889-22.755556 56.888889-56.888889v-227.555556c0-28.444444-28.444444-56.888889-56.888889-56.888889z m0 284.444445h-227.555556v-227.555556h227.555556v227.555556z" /></svg>