<?xml version="1.0" encoding="UTF-8"?>
<svg width="17px" height="16px" viewBox="0 0 17 16" version="1.1" xmlns="http://www.w3.org/2000/svg" xmlns:xlink="http://www.w3.org/1999/xlink">
    <title>touxiang-4</title>
    <g id="页面-1" stroke="none" stroke-width="1" fill="none" fill-rule="evenodd">
        <g id="门户首页标注版本备份" transform="translate(-1805.000000, -20.000000)">
            <g id="touxiang-4" transform="translate(1805.013689, 19.996441)">
                <rect id="矩形" fill-opacity="0" fill="#D8D8D8" x="0" y="0" width="16" height="16"></rect>
                <path d="M1.5000009,14.0401683 C1.49868601,11.6034159 2.94034645,9.38747449 5.19482071,8.3609514 C6.03179878,8.8887107 7.00471303,9.17207448 7.99987869,9.17793176 C8.99504435,9.17207448 9.9679586,8.8887107 10.8049367,8.3609514 C13.0594109,9.38747449 14.5010714,11.6034159 14.4998781,14.0401683 C14.5459769,16.6312845 1.5000009,16.6751777 1.5000009,14.0401683 L1.5000009,14.0401683 Z M11.086598,7.22397529 C10.6918053,7.62368808 10.2126219,7.93393945 9.68262459,8.13298982 C9.16841211,8.35953549 8.56031252,8.45156968 7.99987869,8.45156968 C7.43800044,8.45156968 6.82990085,8.36095141 6.31568836,8.13298982 C5.79883159,7.91117937 5.32486024,7.60366984 4.91460379,7.22397529 C4.50448552,6.8427183 4.18494109,6.37769523 3.97862152,5.8618694 C3.74462595,5.36205299 3.65073884,4.81692746 3.65073884,4.22507689 C3.65073884,3.67995136 3.74462595,3.13482581 3.97862152,2.58970028 C4.21261709,2.08988387 4.53905535,1.59006748 4.91315938,1.22617848 C5.33492917,0.818396265 5.80147589,0.499816406 6.31568836,0.318579859 C6.87756662,0.0920341869 7.43800044,0 7.99987869,0 C8.56031252,0 9.16985653,0.0906182654 9.68262459,0.318579859 C10.1968371,0.54512553 10.712494,0.863705389 11.086598,1.22617848 C11.505479,1.63679253 11.8348061,2.08988387 12.0211359,2.58970028 C12.2551314,3.08951669 12.3490185,3.63464222 12.3490185,4.22507689 C12.3490185,4.77161834 12.2551314,5.31532796 12.0211359,5.8618694 C11.8333616,6.36168581 11.5069234,6.81619307 11.086598,7.22397529 L11.086598,7.22397529 Z" id="形状" fill="#FFFFFF" fill-rule="nonzero"></path>
            </g>
        </g>
    </g>
</svg>