<svg t="1606112904213" class="icon" viewBox="0 0 1024 1024" version="1.1" xmlns="http://www.w3.org/2000/svg" p-id="32954" xmlns:xlink="http://www.w3.org/1999/xlink"><defs><style type="text/css"></style></defs><path d="M899.6 311.2c12.8 18.3 15.7 38.9 8.7 61.9L776.1 808.5c-6.1 20.5-18.4 37.7-36.8 51.6C721 874 701.4 881 680.5 881H237.2c-24.7 0-48.4-8.6-71.3-25.7-22.9-17.2-38.8-38.2-47.8-63.2-7.7-21.4-8-41.8-1-61 0-1.3 0.5-5.6 1.4-12.9 1-7.4 1.6-13.2 1.9-17.8 0.3-2.5-0.2-6-1.4-10.3-1.3-4.3-1.7-7.5-1.4-9.4 0.6-3.5 1.9-6.9 3.8-10.1s4.5-7 7.9-11.3c3.3-4.3 6-8.1 7.9-11.3 7.4-12.1 14.6-26.8 21.6-44s11.8-31.8 14.4-44c1-3.2 1-8 0.2-14.4s-0.9-10.9-0.2-13.4c1-3.5 3.6-8 8.2-13.4 4.4-5.5 7.2-9.1 8.2-11 6.8-11.5 13.4-26.3 20.2-44.2 6.8-17.9 10.7-32.3 12-43.2 0.3-2.9-0.1-8-1.2-15.4-1.1-7.4-1-11.8 0.2-13.4 1.3-4.1 4.9-9.1 10.6-14.7 5.8-5.6 9.3-9.2 10.6-10.8 6.1-8.3 12.9-21.8 20.4-40.6 7.5-18.7 11.9-34.2 13.2-46.4 0.3-2.5-0.2-6.7-1.4-12.2-1.3-5.6-1.6-9.8-1-12.7 0.6-2.5 2.1-5.5 4.3-8.7 2.2-3.2 5.2-6.9 8.7-11 3.5-4.1 6.3-7.5 8.2-10.1 2.5-3.8 5.2-8.7 7.9-14.7s5.2-11.5 7.2-16.8c2.1-5.3 4.6-11 7.7-17.3 3-6.3 6.2-11.3 9.4-15.4 3.2-4 7.5-7.8 12.7-11.3s11-5.4 17.3-5.6c6.3-0.2 13.8 0.7 22.8 2.6l-0.5 1.4c12.1-2.9 20.3-4.3 24.5-4.3H769c23.7 0 41.9 9 54.8 26.9 12.8 18 15.7 38.8 8.7 62.4L700.8 667.7c-11.5 38.1-22.9 62.6-34.4 73.8-11.4 11-31.9 16.6-61.7 16.6H187.1c-8.7 0-14.8 2.4-18.3 7.2-3.5 5.2-3.6 12-0.5 20.6 7.7 22.4 30.7 33.6 69.2 33.6H681c9.3 0 18.3-2.5 26.9-7.5 8.7-5 14.2-11.6 16.8-19.9l144.1-474.2c2.2-7.1 3-16.2 2.4-27.4 12.2 4.9 21.7 11.7 28.4 20.7z m-551 124c-1.3 4.1-1 7.8 1 10.8 1.9 3 5.2 4.5 9.6 4.5h292.1c4.1 0 8.3-1.5 12.2-4.5 4-3 6.7-6.7 7.9-10.8l10.1-30.7c1.3-4.1 1-7.8-1-10.8-1.9-3-5.2-4.5-9.6-4.5H378.8c-4.1 0-8.3 1.5-12.2 4.5-4 3-6.7 6.7-7.9 10.8l-10.1 30.7z m39.8-123.1c-1.3 4.1-1 7.8 1 10.8 1.9 3 5.2 4.5 9.6 4.5h292.1c4.1 0 8.3-1.5 12.2-4.5 4-3 6.7-6.7 7.9-10.8l10.1-30.7c1.3-4.1 1-7.8-1-10.8-1.9-3-5.2-4.5-9.6-4.5h-292c-4.1 0-8.3 1.5-12.2 4.5-4 3-6.7 6.7-7.9 10.8l-10.2 30.7z" p-id="32955"></path></svg>