<?xml version="1.0" encoding="utf-8"?>
<!-- Generator: Adobe Illustrator 16.0.0, SVG Export Plug-In . SVG Version: 6.00 Build 0)  -->
<!DOCTYPE svg PUBLIC "-//W3C//DTD SVG 1.0//EN" "http://www.w3.org/TR/2001/REC-SVG-20010904/DTD/svg10.dtd">
<svg version="1.0" id="图层_1" xmlns="http://www.w3.org/2000/svg" xmlns:xlink="http://www.w3.org/1999/xlink" x="0px" y="0px"
	  viewBox="0 0 200 200" enable-background="new 0 0 200 200" xml:space="preserve">
<path d="M121.001,10H79c-2.624,0-4.497,2.253-4.497,4.877v9.374c0,2.624,2.243,4.867,4.497,4.867h42.001
	c2.623,0,4.496-2.243,4.496-4.867v-9.374C125.878,12.253,123.624,10,121.001,10z M185.123,10h-42.001
	c-2.624,0-4.867,2.253-4.867,4.877v9.374c0,2.624,2.243,4.867,4.867,4.867h42.001c2.623-0.37,4.877-2.243,4.877-4.867v-9.374
	C190,12.253,187.746,10,185.123,10z M185.123,41.495H66.251c-2.624,0-4.877-2.243-4.877-4.866V14.877
	c0-2.624-2.253-4.877-4.872-4.877H14.872C12.248,10,10,12.253,10,14.877v170.627c0,2.242,2.248,4.496,4.872,4.496h170.251
	c2.623,0,4.877-2.254,4.877-4.877V46.372C190,43.749,187.746,41.495,185.123,41.495z"/>
</svg>
