<?xml version="1.0" encoding="utf-8"?>
<!-- Generator: Adobe Illustrator 16.0.0, SVG Export Plug-In . SVG Version: 6.00 Build 0)  -->
<!DOCTYPE svg PUBLIC "-//W3C//DTD SVG 1.0//EN" "http://www.w3.org/TR/2001/REC-SVG-20010904/DTD/svg10.dtd">
<svg version="1.0" id="图层_1" xmlns="http://www.w3.org/2000/svg" xmlns:xlink="http://www.w3.org/1999/xlink" x="0px" y="0px"
	viewBox="0 0 200 200" enable-background="new 0 0 200 200" xml:space="preserve">
<path d="M21.387,153.576h44.575c3.004,0,5.4,2.396,5.4,5.401c0,2.993-2.396,5.39-5.4,5.39H16.095c-1.405,0-2.804-0.597-3.802-1.594
	c-0.998-0.998-1.6-2.408-1.6-3.796V57.22H5.396c-1.399,0-2.798-0.602-3.796-1.6C0.602,54.623,0,53.224,0,51.824V30.432
	c0-2.998,2.396-5.396,5.396-5.396h21.393c2.999,0,5.396,2.397,5.396,5.396v21.393c0,1.399-0.597,2.799-1.6,3.796
	c-0.998,0.998-2.397,1.6-3.796,1.6H21.49v39.282h44.472c3.004,0,5.4,2.397,5.4,5.396c0,2.999-2.396,5.401-5.4,5.401H21.387V153.576z
	 M53.576,30.432c0-2.998,2.396-5.396,5.401-5.396h135.632c2.993,0,5.391,2.397,5.391,5.396v21.393c0,1.399-0.597,2.799-1.595,3.796
	c-0.998,0.998-2.407,1.6-3.796,1.6H58.978c-1.41,0-2.799-0.602-3.808-1.6c-0.997-0.997-1.594-2.396-1.594-3.796V30.432z
	 M92.75,91.106c0-2.999,2.407-5.401,5.4-5.401h96.351c3.004,0,5.401,2.402,5.401,5.401v21.388c0,1.398-0.607,2.798-1.605,3.796
	c-0.998,0.997-2.386,1.604-3.796,1.604H98.259c-1.41,0-2.798-0.607-3.807-1.604c-0.997-0.998-1.594-2.397-1.594-3.796V91.106H92.75z
	 M92.75,148.176c0-2.994,2.407-5.401,5.4-5.401h96.351c3.004,0,5.401,2.407,5.401,5.401v21.387c0,1.41-0.607,2.798-1.605,3.796
	s-2.386,1.605-3.796,1.605H98.259c-1.41,0-2.798-0.607-3.807-1.605c-0.997-0.998-1.594-2.386-1.594-3.796v-21.387H92.75z"/>
</svg>
