<?xml version="1.0" encoding="utf-8"?>
<!-- Generator: Adobe Illustrator 16.0.0, SVG Export Plug-In . SVG Version: 6.00 Build 0)  -->
<!DOCTYPE svg PUBLIC "-//W3C//DTD SVG 1.0//EN" "http://www.w3.org/TR/2001/REC-SVG-20010904/DTD/svg10.dtd">
<svg version="1.0" id="图层_1" xmlns="http://www.w3.org/2000/svg" xmlns:xlink="http://www.w3.org/1999/xlink" x="0px" y="0px"
	 viewBox="0 0 200 200" enable-background="new 0 0 200 200" xml:space="preserve">
<path d="M179.721,5H20.267C11.87,5,5,11.87,5,20.267v159.454C5,188.125,11.87,195,20.267,195h159.454
	c8.404,0,15.279-6.875,15.279-15.279V20.267C195,11.87,188.125,5,179.721,5z M63.674,179.721H20.307l-0.02-0.014v-31.994h43.414
	v32.008H63.674z M63.674,132.433H20.267v-32.007h43.407V132.433z M63.674,85.146H20.267V53.367l0.02-0.021h43.36v31.8H63.674z
	 M121.684,179.721H78.927v-32.008h42.757V179.721z M121.684,132.433H78.94v-32.007h42.771v32.007H121.684z M121.684,85.146H78.94
	v-31.8h42.771v31.8H121.684z M179.721,179.707l-0.014,0.014h-42.73v-32.008h42.744V179.707z M179.721,132.433h-42.757v-32.007
	h42.757V132.433z M179.721,85.146h-42.757v-31.8h42.729l0.014,0.021L179.721,85.146z"/>
</svg>
