<svg t="1606112663505" class="icon" viewBox="0 0 1024 1024" version="1.1" xmlns="http://www.w3.org/2000/svg" p-id="19309" xmlns:xlink="http://www.w3.org/1999/xlink"><defs><style type="text/css"></style></defs><path d="M512.006 351.174c217.514 0 459.862-72.112 459.862-175.588C971.868 72.12 729.52 0 512.008 0 294.482 0 52.13 72.12 52.13 175.586c0 103.476 242.352 175.588 459.874 175.588zM52.132 733.29v115.12c0 103.466 242.352 175.59 459.874 175.59 217.514 0 459.862-72.124 459.862-175.59v-115.12c-81.89 75.352-254.706 126.322-459.86 126.322-205.162 0-377.978-50.97-459.876-126.322z m0-236.078v115.124c0 103.466 242.352 175.586 459.874 175.586 217.514 0 459.862-72.12 459.862-175.586v-115.124c-81.89 75.344-254.706 126.326-459.86 126.326-205.162 0-377.978-50.974-459.876-126.326z m0-210.994v90.04c0 103.47 242.352 175.586 459.874 175.586 217.514 0 459.862-72.116 459.862-175.586V286.22c-81.89 75.348-254.706 126.322-459.86 126.322-205.162 0-377.978-50.974-459.876-126.326z" fill="" p-id="19310"></path></svg>