<?xml version="1.0" encoding="utf-8"?>
<!-- Generator: Adobe Illustrator 24.2.0, SVG Export Plug-In . SVG Version: 6.00 Build 0)  -->
<svg version="1.0" id="图层_1" xmlns="http://www.w3.org/2000/svg" xmlns:xlink="http://www.w3.org/1999/xlink" x="0px" y="0px"
	 viewBox="0 0 16 13" enable-background="new 0 0 16 13" xml:space="preserve">
<g>
	<path d="M15.7,9.2L15.7,9.2c-0.2-0.2-3.3-2.9-3.5-3.1C12.1,6,11.9,6,11.8,6H6.8c0,0-0.8,0.1-0.8,0.8
		c0,0.5,0.3,0.9,0.8,1C7.3,7.8,8.2,8,9,8.1c0.3,0,0,0.2,0,0.2L8,8.9H4.7c0,0-1.3-0.9-2.3-1.7c-1.4-1-2,0-2,0s-0.2,0.4,0,0.6
		c0.8,0.7,3.6,3.2,3.8,3.3c0.1,0.1,0.3,0.2,0.5,0.1h5.7c0.3,0,0.6,0.1,0.8,0.3c0,0,0.9,0.8,1.2,1c0.5,0.4,0.7,0,0.7,0l2.6-2.8
		c0.1,0,0.2-0.2,0.2-0.3C15.7,9.4,15.7,9.3,15.7,9.2z"/>
	<path d="M2,1.2h7.4c0,0,0.1,0,0.1,0c0.3,0,0.5-0.2,0.5-0.5S9.8,0.2,9.5,0.2c0,0-0.1,0-0.1,0H2
		c-0.2,0-0.4,0.3-0.4,0.5C1.6,0.9,1.8,1.1,2,1.2z"/>
	<path d="M2,4h7.4c0.3,0,0.5-0.2,0.5-0.5C9.9,3.2,9.7,3,9.4,3H2C1.7,3,1.5,3.2,1.5,3.5C1.5,3.8,1.7,4,2,4z"/>
</g>
</svg>
