<?xml version="1.0" standalone="no"?><!DOCTYPE svg PUBLIC "-//W3C//DTD SVG 1.1//EN"
  "http://www.w3.org/Graphics/SVG/1.1/DTD/svg11.dtd">
<svg t="1594173006882" class="icon" viewBox="0 0 1024 1024" version="1.1" xmlns="http://www.w3.org/2000/svg" p-id="3181"
     xmlns:xlink="http://www.w3.org/1999/xlink" width="200" height="200">
  <path
    d="M708.928 289.664c81.408 55.104 133.888 141.76 141.76 252.032 26.24 0 55.168 7.872 81.408 18.368-7.872-141.76-81.408-270.4-196.928-341.312-7.872 15.744-7.872 44.608-26.24 70.912z m-55.168 593.344c-44.608 18.432-89.216 34.176-141.76 34.176-52.48 0-99.776-7.872-141.76-34.176-18.432 26.24-34.176 44.672-55.168 63.04 63.04 34.112 126.08 55.168 196.928 55.168 70.912 0 141.76-18.432 196.928-55.168-15.744-20.992-34.112-36.736-55.168-63.04zM170.688 539.072a334.72 334.72 0 0 1 141.76-252.032c-7.872-26.24-18.368-55.168-26.24-81.408-115.52 73.536-189.056 207.36-196.928 351.808 26.24-10.496 52.48-18.368 81.408-18.368z m10.496 47.296A181.504 181.504 0 0 0 0 767.488a181.504 181.504 0 0 0 181.12 181.184 181.504 181.504 0 0 0 181.248-181.12c-2.624-99.84-84.032-181.184-181.184-181.184zM512 0.768a181.504 181.504 0 0 0-181.12 181.248A181.504 181.504 0 0 0 512 363.136a181.504 181.504 0 0 0 181.12-181.12A181.504 181.504 0 0 0 512 0.832z m330.88 585.6a181.504 181.504 0 0 0-181.248 181.12 181.504 181.504 0 0 0 181.184 181.184A181.504 181.504 0 0 0 1024 767.552a181.504 181.504 0 0 0-181.12-181.184z"
    p-id="3182"></path>
  <path
    d="M181.12 586.368A181.504 181.504 0 0 0 0 767.488a181.504 181.504 0 0 0 181.12 181.184 181.504 181.504 0 0 0 181.248-181.12c-2.624-99.84-84.032-181.184-181.184-181.184z"
    p-id="3183"></path>
</svg>