<?xml version="1.0" encoding="utf-8"?>
<!-- Generator: Adobe Illustrator 24.2.0, SVG Export Plug-In . SVG Version: 6.00 Build 0)  -->
<svg version="1.0" id="图层_1" xmlns="http://www.w3.org/2000/svg" xmlns:xlink="http://www.w3.org/1999/xlink" x="0px" y="0px"
	 viewBox="0 0 16 16" enable-background="new 0 0 16 16" xml:space="preserve">
<g>
	<path fill-rule="evenodd" clip-rule="evenodd"  d="M9.7,8.1c0.5-0.2,1-0.5,1.4-0.9c0.4-0.4,0.7-0.9,0.9-1.4
		c0.2-0.5,0.3-1.1,0.3-1.6c0-0.6-0.1-1.1-0.3-1.6c-0.2-0.5-0.5-1-0.9-1.4c-0.4-0.4-0.9-0.7-1.4-0.9C9.2,0.1,8.6,0,8,0
		C7.4,0,6.9,0.1,6.3,0.3c-0.5,0.2-1,0.5-1.4,0.9C4.5,1.6,4.2,2.1,4,2.6C3.7,3.1,3.7,3.7,3.7,4.2c0,0.6,0.1,1.1,0.3,1.6
		c0.2,0.5,0.5,1,0.9,1.4c0.4,0.4,0.9,0.7,1.4,0.9C6.8,8.4,7.4,8.5,8,8.5C8.6,8.5,9.2,8.4,9.7,8.1z M5.2,8.4c-2.3,1-3.7,3.2-3.7,5.7
		c0,2.6,13,2.6,13,0c0-2.4-1.4-4.7-3.7-5.7C10,8.9,9,9.2,8,9.2C7,9.2,6,8.9,5.2,8.4z"/>
</g>
</svg>
