<?xml version="1.0" encoding="utf-8"?>
<!-- Generator: Adobe Illustrator 16.0.0, SVG Export Plug-In . SVG Version: 6.00 Build 0)  -->
<!DOCTYPE svg PUBLIC "-//W3C//DTD SVG 1.0//EN" "http://www.w3.org/TR/2001/REC-SVG-20010904/DTD/svg10.dtd">
<svg version="1.0" id="图层_1" xmlns="http://www.w3.org/2000/svg" xmlns:xlink="http://www.w3.org/1999/xlink" x="0px" y="0px"
	 viewBox="0 0 200 200" enable-background="new 0 0 200 200" xml:space="preserve">
<path d="M100,0C44.778,0,0,44.778,0,100c0,55.227,44.778,100,100,100c55.227,0,100-44.773,100-100C200,44.778,155.227,0,100,0z
	 M100,183.036c-45.847,0-83.036-37.185-83.036-83.036c0-45.847,37.188-83.036,83.036-83.036c45.852,0,83.036,37.188,83.036,83.036
	C183.036,145.852,145.852,183.036,100,183.036z M90.44,64.286H79.726c-0.981,0-1.786,0.805-1.786,1.786v67.857
	c0,0.985,0.805,1.785,1.786,1.785H90.44c0.981,0,1.786-0.8,1.786-1.785V66.071C92.226,65.09,91.421,64.286,90.44,64.286z
	 M120.357,64.286h-10.715c-0.985,0-1.785,0.805-1.785,1.786v67.857c0,0.985,0.8,1.785,1.785,1.785h10.715
	c0.985,0,1.785-0.8,1.785-1.785V66.071C122.143,65.09,121.343,64.286,120.357,64.286z M82.156,76.689V65.975
	c0-0.981-0.788-1.786-1.751-1.786H49.691c-0.965,0-1.749,0.805-1.749,1.786v10.715c0,0.98,0.784,1.785,1.749,1.785h30.714
	C81.368,78.475,82.156,77.67,82.156,76.689z M82.156,133.939v-10.715c0-0.981-0.788-1.786-1.751-1.786H49.691
	c-0.965,0-1.749,0.805-1.749,1.786v10.715c0,0.98,0.784,1.785,1.749,1.785h30.714C81.368,135.725,82.156,134.92,82.156,133.939z
	 M152.156,76.689V65.975c0-0.981-0.788-1.786-1.751-1.786h-30.714c-0.966,0-1.75,0.805-1.75,1.786v10.715
	c0,0.98,0.784,1.785,1.75,1.785h30.714C151.368,78.475,152.156,77.67,152.156,76.689z M152.156,133.939v-10.715
	c0-0.981-0.788-1.786-1.751-1.786h-30.714c-0.966,0-1.75,0.805-1.75,1.786v10.715c0,0.98,0.784,1.785,1.75,1.785h30.714
	C151.368,135.725,152.156,134.92,152.156,133.939z"/>
</svg>
