<svg width="24" height="24" viewBox="0 0 24 24" fill="none" xmlns="http://www.w3.org/2000/svg">
    <path d="M15 3H7.8C7.358 3 7 3.298 7 3.667V7L15 12L18.5 13.5L22 12V7L15 3Z" fill="#21A366"></path>
    <path d="M7 12H15V7H7V12Z" fill="#107C41"></path>
    <path d="M22 3.82009V7.00009H15V3.00009H21.17C21.63 3.00009 22 3.37009 22 3.82009Z" fill="#33C481"></path>
    <path d="M15 12H7V16.035V16.069V20.167C7 20.627 7.373 21 7.833 21H21.167C21.627 21 22 20.627 22 20.167V17L15 12Z" fill="#185C37"></path>
    <path d="M15 17H22V12H15V17Z" fill="#107C41"></path>
    <path opacity="0.5" d="M13.963 7H7V19H13.759C14.389 19 15 18.389 15 17.839V8C15 7.45 14.533 7 13.963 7Z" fill="black"></path>
    <path d="M12.9996 17.9998H3.00061C2.44761 17.9998 2.00061 17.5518 2.00061 16.9998V7.00079C2.00061 6.44779 2.44761 6.00079 3.00061 6.00079H12.9996C13.5516 6.00079 13.9996 6.44779 13.9996 7.00079V16.9998C13.9996 17.5518 13.5516 17.9998 12.9996 17.9998Z" fill="#107C41"></path>
    <path d="M4.76184 15.625L7.10784 11.99L4.95884 8.375H6.68784L7.86084 10.686C7.96884 10.905 8.04284 11.068 8.08384 11.176H8.09884C8.17584 11.001 8.25684 10.831 8.34084 10.665L9.59484 8.375H11.1828L8.97784 11.97L11.2378 15.625H9.54984L8.19484 13.087C8.13684 12.993 8.08384 12.88 8.03284 12.748H8.01284C7.98884 12.829 7.93684 12.939 7.85584 13.077L6.46084 15.625H4.76184Z" fill="white"></path>
  </svg>