<svg width="24" height="24" viewBox="0 0 24 24" fill="none" xmlns="http://www.w3.org/2000/svg">
    <path d="M13.7212 12.5474L18.1912 9.85441C17.5012 7.15341 15.0512 5.15741 12.1352 5.15741C9.87221 5.15741 7.89021 6.36141 6.79321 8.16341L13.7212 12.5474Z" fill="#0364B8"></path>
    <path d="M9.62676 8.74097V8.74197C8.86276 8.26997 7.96376 7.99597 6.99976 7.99597C6.97876 7.99597 6.95776 7.99797 6.93576 7.99797C4.20476 8.03197 1.99976 10.256 1.99976 12.996C1.99976 14.059 2.33276 15.044 2.89876 15.854L9.34776 14.821L13.8258 11.256L9.62676 8.74097Z" fill="#0078D4"></path>
    <path d="M18.2041 9.87401C18.1131 9.86801 18.0221 9.86401 17.9301 9.86401C17.3581 9.86401 16.8131 9.98301 16.3191 10.196V10.196L13.8181 11.249L16.5791 14.758L21.5061 15.854C21.8161 15.28 21.9921 14.624 21.9921 13.926C21.9921 11.775 20.3201 10.015 18.2041 9.87401" fill="#1490DF"></path>
    <path d="M13.8252 11.2598L2.89819 15.8578C3.80219 17.1528 5.30119 17.9998 7.00019 17.9998H17.9372C19.4832 17.9998 20.8272 17.1358 21.5142 15.8648L13.8252 11.2598Z" fill="#28A8EA"></path>
  </svg>