<svg width="24" height="24" viewBox="0 0 24 24" fill="none" xmlns="http://www.w3.org/2000/svg">
    <path d="M13 3.00018C8.05 3.00018 4 7.05018 4 12.0002L15 13.5002L13 3.00018Z" fill="#ED6C47"></path>
    <path d="M13 3.00018C17.95 3.00018 22 7.05018 22 12.0002L17.5 14.0002L13 12.0002V3.00018Z" fill="#FF8F6B"></path>
    <path d="M21.9998 12.0002V12.0002C21.9998 16.9502 17.9498 21.0002 12.9998 21.0002C8.04976 21.0002 3.99976 16.9502 3.99976 12.0002H21.9998Z" fill="#D35230"></path>
    <path opacity="0.5" d="M14.013 7H5.529C4.565 8.433 4 10.153 4 12C4 14.821 5.318 17.347 7.366 19H13.819C14.418 19 15 18.389 15 17.839V8C15 7.45 14.556 7 14.013 7" fill="black"></path>
    <path d="M13 18H3C2.45 18 2 17.55 2 17V7C2 6.45 2.45 6 3 6H13C13.55 6 14 6.45 14 7V17C14 17.55 13.55 18 13 18" fill="#C43E1C"></path>
    <path fill-rule="evenodd" clip-rule="evenodd" d="M10.0933 8.95651C9.63331 8.56851 8.96931 8.37451 8.10331 8.37451H5.21631V15.6245H6.63231V13.2655H8.01231C8.56531 13.2655 9.05131 13.1635 9.47131 12.9595C9.89031 12.7555 10.2143 12.4695 10.4423 12.1025C10.6693 11.7355 10.7833 11.1125 10.7833 10.6395C10.7833 9.90551 10.5533 9.34351 10.0933 8.95651ZM7.85031 12.0085H6.63231V9.49751H7.89631C8.82631 9.49751 9.29131 9.89651 9.29131 10.6955C9.29131 11.1065 9.17031 11.4735 8.92731 11.6875C8.68531 11.9015 8.32631 12.0085 7.85031 12.0085Z" fill="white"></path>
  </svg>