<?xml version="1.0" standalone="no"?><!DOCTYPE svg PUBLIC "-//W3C//DTD SVG 1.1//EN" "http://www.w3.org/Graphics/SVG/1.1/DTD/svg11.dtd"><svg t="1636447981024" class="icon" viewBox="0 0 1185 1024" version="1.1" xmlns="http://www.w3.org/2000/svg" p-id="10511" xmlns:xlink="http://www.w3.org/1999/xlink" ><defs><style type="text/css"></style></defs><path d="M663.336421 29.534316H512.485053a113.071158 113.071158 0 0 0-111.023158 115.173052c1.131789 60.901053 50.122105 111.023158 111.023158 111.023158h150.959158c62.517895 0 112.316632-52.816842 111.023157-115.173052a113.178947 113.178947 0 0 0-111.130947-111.023158z m0 377.909895H512.485053A113.071158 113.071158 0 0 0 401.515789 522.778947c1.131789 60.901053 50.122105 108.759579 111.023158 111.023158h150.959158c62.517895-2.263579 112.316632-52.816842 111.023158-115.173052a113.232842 113.232842 0 0 0-111.130947-111.184842z m0 376.832H512.485053c-62.517895 2.263579-112.262737 52.816842-111.023158 115.173052a113.178947 113.178947 0 0 0 111.023158 111.023158h150.959158a113.178947 113.178947 0 0 0 111.023157-115.334737 112.855579 112.855579 0 0 0-111.130947-110.753684v-0.107789z m-415.312842 75.237052a150.366316 150.366316 0 0 1-150.689684-150.797474 149.611789 149.611789 0 0 1 44.193684-106.603789 150.366316 150.366316 0 0 1 106.873263-44.085895h75.237053V482.250105H248.454737a226.627368 226.627368 0 0 0-226.627369 226.357895c0 124.928 101.537684 226.357895 226.088421 226.357895v75.398737l113.178948-113.178948-113.286737-113.178947v75.452631h0.269474v0.053895zM927.528421 105.310316h-75.290947V181.086316h75.290947c40.043789 0 78.416842 15.521684 106.711579 43.816421a150.366316 150.366316 0 0 1-0.269474 213.207579 151.875368 151.875368 0 0 1-107.088842 44.139789v-75.452631l-113.178947 113.178947 113.178947 113.178947V557.810526c124.550737 0 226.627368-101.322105 226.627369-226.19621a225.872842 225.872842 0 0 0-225.980632-226.250105z" p-id="10512"></path></svg>