<?xml version="1.0" standalone="no"?><!DOCTYPE svg PUBLIC "-//W3C//DTD SVG 1.1//EN" "http://www.w3.org/Graphics/SVG/1.1/DTD/svg11.dtd"><svg t="1636447951472" class="icon" viewBox="0 0 1144 1024" version="1.1" xmlns="http://www.w3.org/2000/svg" p-id="8516" xmlns:xlink="http://www.w3.org/1999/xlink" ><defs><style type="text/css"></style></defs><path d="M584.837763 951.664534a365.670406 365.670406 0 0 1-213.807122-67.966574c-9.606264-6.865919-18.971618-14.273884-27.915381-22.103441L293.096439 915.257096c10.750583 9.425582 22.10344 18.399458 33.667093 26.650606a446.495521 446.495521 0 0 0 538.041106-16.713092l-48.181887-55.348943a368.049386 368.049386 0 0 1-231.784988 81.818867z" fill="#138172" p-id="8517"></path><path d="M754.317549 213.548144l-29.089814 66.581345A349.017541 349.017541 0 0 1 945.569525 602.165174a341.850486 341.850486 0 0 1-6.022736 64.021681l73.387036 13.129564a410.328992 410.328992 0 0 0 7.287511-77.151245 421.20003 421.20003 0 0 0-265.903787-388.61703z" fill="#138172" p-id="8518"></path><path d="M429.932997 286.453361l-32.101182-65.286456a423.217647 423.217647 0 0 0-248.317398 380.998269c0 13.09945 0.632387 26.379583 1.867048 39.418806l74.32056-6.594896a351.667545 351.667545 0 0 1-1.565911-32.82391 350.734021 350.734021 0 0 1 205.796883-315.711813z" fill="#138172" p-id="8519"></path><path d="M223.895204 1012.403824a217.029286 217.029286 0 1 1 223.895205-216.818489 220.733268 220.733268 0 0 1-223.895205 216.818489z m0-337.273206a120.454717 120.454717 0 1 0 124.399609 120.454717 122.622901 122.622901 0 0 0-124.399609-120.605285z" fill="#30C4AB" p-id="8520"></path><path d="M920.454717 1012.403824a217.029286 217.029286 0 1 1 223.86509-216.818489 220.733268 220.733268 0 0 1-223.86509 216.818489z m0-337.273206a120.454717 120.454717 0 1 0 124.369494 120.454717 122.622901 122.622901 0 0 0-124.369494-120.605285z" fill="#30C4AB" p-id="8521"></path><path d="M572.159904 433.950162a217.029286 217.029286 0 1 1 223.895204-216.81849 220.733268 220.733268 0 0 1-223.895204 216.81849z m0-337.273206a120.454717 120.454717 0 1 0 124.399608 120.454716A122.622901 122.622901 0 0 0 572.159904 96.526387z" fill="#30C4AB" p-id="8522"></path></svg>