<?xml version="1.0" standalone="no"?><!DOCTYPE svg PUBLIC "-//W3C//DTD SVG 1.1//EN" "http://www.w3.org/Graphics/SVG/1.1/DTD/svg11.dtd"><svg t="1603265140349" class="icon" viewBox="0 0 1024 1024" version="1.1" xmlns="http://www.w3.org/2000/svg" p-id="7417" xmlns:xlink="http://www.w3.org/1999/xlink" width="120" height="120"><defs><style type="text/css"></style></defs><path d="M929 65H93c-16.6 0-30 13.4-30 30v836c0 16.6 13.4 30 30 30h836c16.6 0 30-13.4 30-30V95c0-16.6-13.4-30-30-30z m-34 832H127V129h768v768z" p-id="7418"></path><path d="M224 832h192c17.7 0 32-14.3 32-32s-14.3-32-32-32H301.3l173.6-173.6c12.5-12.5 12.5-32.8 0-45.3s-32.8-12.5-45.3 0L256 722.7V608c0-17.7-14.3-32-32-32s-32 14.3-32 32v192c0 17.7 14.4 32 32 32zM576.8 479.8c8.2 0 16.4-3.1 22.6-9.4L768 301.8v114.7c0 17.7 14.3 32 32 32s32-14.3 32-32v-192-0.2-1.4c0-0.3 0-0.5-0.1-0.8 0-0.3 0-0.5-0.1-0.8 0-0.3-0.1-0.6-0.1-1 0-0.2 0-0.4-0.1-0.6-0.1-0.3-0.1-0.7-0.2-1 0-0.2-0.1-0.3-0.1-0.5-0.1-0.3-0.1-0.7-0.2-1 0-0.2-0.1-0.3-0.1-0.5-0.1-0.3-0.2-0.7-0.3-1 0-0.2-0.1-0.4-0.1-0.5l-0.3-0.9c-0.1-0.2-0.1-0.4-0.2-0.6-0.1-0.3-0.2-0.5-0.3-0.8-0.1-0.2-0.2-0.5-0.3-0.7-0.1-0.2-0.2-0.5-0.3-0.7-0.1-0.3-0.2-0.5-0.3-0.8l-0.3-0.6c-0.1-0.3-0.3-0.6-0.4-0.8-0.1-0.2-0.2-0.3-0.3-0.5-0.2-0.3-0.3-0.6-0.5-0.9-0.1-0.2-0.2-0.3-0.3-0.5l-0.6-0.9c-0.1-0.2-0.2-0.3-0.3-0.5-0.2-0.3-0.4-0.5-0.6-0.8-0.1-0.2-0.3-0.3-0.4-0.5-0.2-0.2-0.4-0.5-0.6-0.7l-0.6-0.6c-0.2-0.2-0.3-0.4-0.5-0.5-0.7-0.8-1.5-1.5-2.2-2.2-0.2-0.2-0.4-0.3-0.6-0.5-0.2-0.2-0.4-0.4-0.6-0.5-0.2-0.2-0.5-0.4-0.7-0.6-0.2-0.1-0.3-0.3-0.5-0.4-0.3-0.2-0.6-0.4-0.8-0.6-0.1-0.1-0.3-0.2-0.4-0.3l-0.9-0.6c-0.1-0.1-0.3-0.2-0.4-0.3-0.3-0.2-0.6-0.3-0.9-0.5-0.2-0.1-0.3-0.2-0.5-0.3-0.3-0.2-0.6-0.3-0.8-0.4l-0.6-0.3c-0.3-0.1-0.5-0.2-0.8-0.4-0.2-0.1-0.4-0.2-0.7-0.3-0.2-0.1-0.5-0.2-0.7-0.3-0.3-0.1-0.5-0.2-0.8-0.3-0.2-0.1-0.4-0.1-0.6-0.2l-0.9-0.3c-0.2-0.1-0.4-0.1-0.6-0.2l-0.9-0.3c-0.2 0-0.4-0.1-0.5-0.1-0.3-0.1-0.7-0.2-1-0.2-0.2 0-0.4-0.1-0.6-0.1-0.3-0.1-0.7-0.1-1-0.2-0.2 0-0.4-0.1-0.6-0.1-0.3 0-0.6-0.1-0.9-0.1-0.3 0-0.6 0-0.9-0.1H607.8c-17.7 0-32 14.3-32 32s14.3 32 32 32h114.7l-168.3 169c-12.5 12.5-12.5 32.8 0 45.3 6.3 6.2 14.4 9.3 22.6 9.3z" p-id="7419"></path></svg>