<?xml version="1.0" encoding="utf-8"?>
<!-- Generator: Adobe Illustrator 24.2.0, SVG Export Plug-In . SVG Version: 6.00 Build 0)  -->
<svg version="1.0" id="图层_1" xmlns="http://www.w3.org/2000/svg" xmlns:xlink="http://www.w3.org/1999/xlink" x="0px" y="0px"
	 viewBox="0 0 24 24" enable-background="new 0 0 24 24" xml:space="preserve">
<path d="M12,1.5c-2.8,0-5.4,1.1-7.4,3.1c0,0-0.1,0.1-0.1,0.1V4.5C4.5,3.7,3.8,3,3,3S1.5,3.7,1.5,4.5v4c0,0,0,0,0,0
	c0,0.1,0,0.1,0,0.2c0,0,0,0.1,0,0.1c0,0,0,0.1,0,0.1c0,0,0,0.1,0,0.1c0,0,0,0.1,0.1,0.1c0,0,0,0.1,0.1,0.1c0,0,0.1,0.1,0.1,0.1
	c0,0,0.1,0.1,0.1,0.1c0,0,0,0,0,0c0,0,0,0,0,0c0.1,0.1,0.3,0.2,0.5,0.3c0,0,0,0,0.1,0C2.7,10,2.8,10,3,10h4c0.8,0,1.5-0.7,1.5-1.5
	S7.8,7,7,7H6.4c0.1-0.1,0.2-0.2,0.3-0.3C8.1,5.3,10,4.5,12,4.5c4.1,0,7.5,3.4,7.5,7.5s-3.4,7.5-7.5,7.5c-2,0-3.9-0.8-5.3-2.2
	c-0.6-0.6-1.5-0.6-2.1,0c-0.6,0.6-0.6,1.5,0,2.1c2,2,4.6,3.1,7.4,3.1c5.8,0,10.5-4.7,10.5-10.5C22.5,6.2,17.8,1.5,12,1.5z"/>
</svg>
