<svg xmlns="http://www.w3.org/2000/svg" xmlns:xlink="http://www.w3.org/1999/xlink" fill="none" version="1.1" width="15.428571701049805" height="18" viewBox="0 0 15.428571701049805 18"><defs><clipPath id="master_svg0_1_37"><rect x="0" y="0" width="15.428571701049805" height="18" rx="0"/></clipPath></defs><g clip-path="url(#master_svg0_1_37)"><g style="mix-blend-mode:passthrough"><g><path d="M1.92857,0L10.2857,0L15.4286,5.14286L15.4286,16.0714C15.4286,17.1365,14.5651,18,13.5,18L1.92857,18C0.863451,18,0,17.1365,0,16.0714L0,1.92857C0,0.863451,0.863451,0,1.92857,0Z" fill-rule="evenodd" fill="#DD3633" fill-opacity="1"/></g><g style="opacity:0.4000000059604645;"><path d="M10.285736083984375,0L15.428596083984374,5.14286L12.214306083984376,5.14286C11.149187083984375,5.14286,10.285736083984375,4.27941,10.285736083984375,3.21429L10.285736083984375,0Z" fill-rule="evenodd" fill="#FFFFFF" fill-opacity="1"/></g></g><g><path d="M10.430712207031249,14C9.63785220703125,14,8.92678220703125,12.62101,8.55267220703125,11.72431C7.92333220703125,11.45806,7.22960220703125,11.20938,6.5556922070312496,11.04863C5.96601220703125,11.44299,4.96258220703125,12.033249999999999,4.19202920703125,12.033249999999999C3.71385020703125,12.033249999999999,3.36945720703125,11.78961,3.24309980703125,11.365120000000001C3.14647450703125,11.015979999999999,3.22824260703125,10.774840000000001,3.33229620703125,10.64422C3.53545720703125,10.3629,3.95417120703125,10.21973,4.5810322070312495,10.21973C5.08894220703125,10.21973,5.733122207031251,10.31015,6.45163220703125,10.48597C6.91494220703125,10.15191,7.38569220703125,9.76509,7.80442220703125,9.35566C7.61860220703125,8.46147,7.41542220703125,7.01215,7.93078220703125,6.344018C8.185962207031249,6.0250139,8.57496220703125,5.9195115,9.04571220703125,6.0626972C9.561062207031249,6.213394,9.75678220703125,6.532398,9.81624220703125,6.783584C10.03428220703125,7.65517,9.04571220703125,8.8307,8.379222207031251,9.52145C8.52788220703125,10.11926,8.72362220703125,10.74972,8.96147220703125,11.32742C9.91783220703125,11.75946,11.055052207031249,12.405000000000001,11.183902207031249,13.10831C11.23592220703125,13.35195,11.161602207031251,13.578009999999999,10.96587220703125,13.77645C10.79738220703125,13.917110000000001,10.618992207031251,14,10.430712207031249,14ZM9.717872207031249,12.47964C9.89230220703125,12.87312,10.05860220703125,13.05882,10.14626220703125,13.05882C10.15983220703125,13.05882,10.17881220703125,13.052800000000001,10.20592220703125,13.02871C10.238462207031251,12.99258,10.238462207031251,12.96849,10.23303220703125,12.94641C10.214962207031249,12.843,10.067632207031249,12.67338,9.717872207031249,12.47964ZM4.68354220703125,10.88688C4.40462220703125,10.88688,4.32795220703125,10.95519,4.30462220703125,10.98706C4.2979522070312495,10.9973,4.27795220703125,11.02804,4.2979522070312495,11.10771C4.31462220703125,11.176020000000001,4.36129220703125,11.24887,4.5057422070312505,11.24887C4.68687220703125,11.24887,4.94912220703125,11.14528,5.253582207031251,10.95973C5.03579220703125,10.91079,4.84354220703125,10.88688,4.68354220703125,10.88688ZM7.41429220703125,10.53542C7.58096220703125,10.58248,7.75376220703125,10.64313,7.91429220703125,10.70588C7.85601220703125,10.551110000000001,7.80897220703125,10.39006,7.76912220703125,10.235289999999999C7.65289220703125,10.33779,7.53459220703125,10.43786,7.41429220703125,10.53542ZM8.59226220703125,7.14027C8.53297220703125,7.14027,8.49138220703125,7.16252,8.45396220703125,7.20382C8.343722207031249,7.34469,8.33124220703125,7.69949,8.41651220703125,8.15385C8.739922207031249,7.80223,8.91567220703125,7.47919,8.87199220703125,7.30655C8.86574220703125,7.28114,8.847032207031251,7.20382,8.69624220703125,7.15933C8.65463220703125,7.14662,8.623462207031249,7.14027,8.59226220703125,7.14027Z" fill="#FFFFFF" fill-opacity="1"/></g></g></svg>