<svg xmlns="http://www.w3.org/2000/svg" xmlns:xlink="http://www.w3.org/1999/xlink" fill="none" version="1.1" width="15.428571701049805" height="18" viewBox="0 0 15.428571701049805 18"><defs><clipPath id="master_svg0_1_009"><rect x="0" y="0" width="15.428571701049805" height="18" rx="0"/></clipPath></defs><g clip-path="url(#master_svg0_1_009)"><g style="mix-blend-mode:passthrough"><g><path d="M1.92857,0L10.2857,0L15.4286,5.14286L15.4286,16.0714C15.4286,17.1365,14.5651,18,13.5,18L1.92857,18C0.863451,18,0,17.1365,0,16.0714L0,1.92857C0,0.863451,0.863451,0,1.92857,0Z" fill-rule="evenodd" fill="#FFC43D" fill-opacity="1"/></g><g style="opacity:0.8999999761581421;"><path d="M3.214263916015625,10.2857L3.214263916015625,11.5714L4.499973916015625,11.5714L4.499973916015625,10.2857L3.214263916015625,10.2857ZM4.499973916015625,9L4.499973916015625,10.2857L5.785693916015624,10.2857L5.785693916015624,9L4.499973916015625,9ZM3.214263916015625,7.71429L3.214263916015625,9L4.499973916015625,9L4.499973916015625,7.71429L3.214263916015625,7.71429ZM4.499973916015625,6.42857L4.499973916015625,7.71429L5.785693916015624,7.71429L5.785693916015624,6.42857L4.499973916015625,6.42857ZM3.214263916015625,5.14286L3.214263916015625,6.42857L4.499973916015625,6.42857L4.499973916015625,5.14286L3.214263916015625,5.14286ZM4.499973916015625,3.85714L4.499973916015625,5.14286L5.785693916015624,5.14286L5.785693916015624,3.85714L4.499973916015625,3.85714ZM3.214263916015625,2.57143L3.214263916015625,3.85714L4.499973916015625,3.85714L4.499973916015625,2.57143L3.214263916015625,2.57143ZM4.499973916015625,1.28571L4.499973916015625,2.57143L5.785693916015624,2.57143L5.785693916015624,1.28571L4.499973916015625,1.28571ZM3.214263916015625,0L3.214263916015625,1.28571L4.499973916015625,1.28571L4.499973916015625,0L3.214263916015625,0Z" fill-rule="evenodd" fill="#FFFFFF" fill-opacity="1"/></g><g style="opacity:0.4000000059604645;"><path d="M10.285736083984375,0L15.428596083984374,5.14286L12.214306083984376,5.14286C11.149187083984375,5.14286,10.285736083984375,4.27941,10.285736083984375,3.21429L10.285736083984375,0Z" fill-rule="evenodd" fill="#FFFFFF" fill-opacity="1"/></g></g></g></svg>