<svg xmlns="http://www.w3.org/2000/svg" xmlns:xlink="http://www.w3.org/1999/xlink" fill="none" version="1.1" width="15.428571701049805" height="18" viewBox="0 0 15.428571701049805 18"><defs><clipPath id="master_svg0_1_19"><rect x="0" y="0" width="15.428571701049805" height="18" rx="0"/></clipPath></defs><g clip-path="url(#master_svg0_1_19)"><g style="mix-blend-mode:passthrough"><g><path d="M1.92857,0L10.2857,0L15.4286,5.14286L15.4286,16.0714C15.4286,17.1365,14.5651,18,13.5,18L1.92857,18C0.863451,18,0,17.1365,0,16.0714L0,1.92857C0,0.863451,0.863451,0,1.92857,0Z" fill-rule="evenodd" fill="#E6E8EB" fill-opacity="1"/></g><g><path d="M10.28570556640625,0L15.428565566406249,5.14286L12.21427556640625,5.14286C11.14915656640625,5.14286,10.28570556640625,4.27941,10.28570556640625,3.21429L10.28570556640625,0Z" fill-rule="evenodd" fill="#C6C8CC" fill-opacity="1"/></g><g style="opacity:0.30000001192092896;"><g><path d="M7.714299949340821,12.770987380065918C7.58700994934082,12.770987380065918,7.4597299493408205,12.769697380065917,7.33372994934082,12.766487380065918L7.33372994934082,13.321267380065919C7.334019949340821,13.531247380065917,7.50431994934082,13.701317380065918,7.714299949340821,13.701317380065918C7.9242799493408205,13.701317380065918,8.09457994934082,13.531247380065917,8.09486994934082,13.321267380065919L8.09486994934082,12.766487380065918C7.96886994934082,12.769697380065917,7.8415799493408205,12.770987380065918,7.714299949340821,12.770987380065918ZM5.205869949340821,12.567837380065917L4.986649949340821,13.195267380065918C4.91723994934082,13.393737380065918,5.02186994934082,13.610897380065918,5.220329949340821,13.68030738006592C5.41879994934082,13.749717380065917,5.635959949340821,13.645087380065917,5.70536994934082,13.446627380065918L5.97472994934082,12.677127380065919C5.71737994934082,12.648607380065918,5.46096994934082,12.612167380065918,5.205869949340821,12.567837380065917ZM10.44193994934082,13.195267380065918L10.22272994934082,12.568487380065918C9.96761994934082,12.612797380065917,9.71121994934082,12.649247380065917,9.45386994934082,12.677767380065918L9.72386994934082,13.446627380065918C9.78715994934082,13.653057380065917,10.00931994934082,13.765537380065918,10.21316994934082,13.694367380065918C10.417019949340819,13.623197380065918,10.52088994934082,13.396877380065918,10.44193994934082,13.195907380065918L10.44193994934082,13.195267380065918ZM10.38986994934082,8.954983580065917C10.45929994934082,9.197983380065917,10.494659949340821,9.452555380065919,10.494659949340821,9.712269380065917C10.494659949340821,10.012487380065918,10.317869949340821,10.285057380065918,10.043369949340821,10.407197380065918C10.000299949340821,10.426487380065918,8.987159949340821,10.870697380065918,7.73743994934082,10.870697380065918C6.946399949340821,10.864077380065918,6.1638399493408205,10.706997380065918,5.43150994934082,10.407837380065917C5.15668994934082,10.285687380065918,4.97957994934082,10.013097380065918,4.97957994934082,9.712269380065917C4.97957994934082,9.448697380065918,5.016869949340821,9.191555380065918,5.087579949340821,8.944697380065918C4.071869949340821,9.148482380065918,2.8928699493408203,9.557983380065918,2.8928699493408203,10.358337380065919C2.8928699493408203,10.898337380065918,3.4232269493408203,11.323267380065918,4.46979994934082,11.622837380065917C4.76936994934082,11.708987380065917,5.10300994934082,11.781627380065919,5.461079949340821,11.839477380065919C5.70729994934082,11.879977380065919,5.965729949340821,11.913407380065918,6.2325099493408205,11.939127380065917C6.72495994934082,11.987287380065919,7.21949994934082,12.010887380065919,7.714299949340821,12.009837380065918C8.20904994934082,12.009157380065918,8.70350994934082,11.985567380065918,9.19608994934082,11.939127380065917C9.46286994934082,11.913407380065918,9.721299949340821,11.879987380065918,9.967509949340819,11.839477380065919C10.32557994934082,11.781627380065919,10.65922994934082,11.708987380065917,10.95943994934082,11.622837380065917C12.005369949340821,11.323267380065918,12.535729949340821,10.898337380065918,12.535729949340821,10.358337380065919C12.535729949340821,9.568911380065918,11.38500994934082,9.160696380065918,10.38986994934082,8.954983580065917Z" fill-rule="evenodd" fill="#455166" fill-opacity="1"/></g><g><path d="M9.542560173950196,8.859224548034668C9.142000173950196,8.016709548034669,8.211580173950196,7.563685548034668,7.301330173950195,7.767964848034668C6.391084173950196,7.972243548034668,5.743476323950195,8.779404548034668,5.741350173950195,9.712294548034668Q6.634922173950195,10.109584548034668,7.737420173950195,10.109584548034668Q8.839920173950196,10.109584548034668,9.733490173950194,9.712294548034668C9.733490173950194,9.406934548034668,9.664710173950196,9.118294548034669,9.542560173950196,8.859224548034668Z" fill-rule="evenodd" fill="#455166" fill-opacity="1"/></g></g></g></g></svg>