<svg xmlns="http://www.w3.org/2000/svg" xmlns:xlink="http://www.w3.org/1999/xlink" fill="none" version="1.1" width="15.428571701049805" height="18" viewBox="0 0 15.428571701049805 18"><defs><clipPath id="master_svg0_1_04"><rect x="0" y="0" width="15.428571701049805" height="18" rx="0"/></clipPath></defs><g clip-path="url(#master_svg0_1_04)"><g><g><path d="M1.92857,0L10.2857,0L15.4286,5.14286L15.4286,16.0714C15.4286,17.1365,14.5651,18,13.5,18L1.92857,18C0.863451,18,0,17.1365,0,16.0714L0,1.92857C0,0.863451,0.863451,0,1.92857,0Z" fill-rule="evenodd" fill="#2FB8EE" fill-opacity="1"/></g><g style="opacity:0.8999999761581421;"><path d="M8.612971357421875,9.64286443359375L8.677251357421875,9.64543443359375C8.824881357421875,9.65920443359375,8.955751357421875,9.74612443359375,9.025681357421874,9.87686443359375L10.882251357421875,13.53215443359375C10.950741357421876,13.66223443359375,10.943361357421875,13.81921443359375,10.862971357421875,13.94229443359375C10.779421357421874,14.06859443359375,10.637671357421876,14.144064433593751,10.486251357421875,14.14286443359375L4.298752357421875,14.14286443359375C4.141819357421875,14.144314433593749,3.995734357421875,14.06296443359375,3.914324057421875,13.928794433593751C3.836161757421875,13.79727443359375,3.838647157421875,13.632964433593749,3.920752757421875,13.503864433593751L5.1576113574218745,11.11308443359375C5.2216813574218754,11.01298443359375,5.323431357421875,10.94298443359375,5.4398213574218754,10.91893443359375C5.557341357421875,10.89378443359375,5.680041357421875,10.91546443359375,5.781821357421875,10.97936443359375L6.770541357421875,11.60872443359375L8.285751357421875,9.80100443359375C8.382421357421876,9.68749443359375,8.529041357421875,9.62923443359375,8.677251357421875,9.64543443359375L8.612971357421875,9.64286443359375ZM6.487041357421875,7.71429443359375C6.971111357421875,7.71429443359375,7.363891357421875,8.10000943359375,7.363891357421875,8.575080433593751C7.363891357421875,9.050794433593751,6.971111357421875,9.43586443359375,6.487041357421875,9.43586443359375C6.002971357421875,9.43586443359375,5.610181357421875,9.05015443359375,5.610181357421875,8.57443643359375C5.610181357421875,8.09936543359375,6.0023213574218754,7.71429382051775,6.487041357421875,7.71429443359375Z" fill="#FFFFFF" fill-opacity="1"/></g><g style="opacity:0.4000000059604645;"><path d="M10.285736083984375,0L15.428596083984374,5.14286L12.214306083984376,5.14286C11.149187083984375,5.14286,10.285736083984375,4.27941,10.285736083984375,3.21429L10.285736083984375,0Z" fill-rule="evenodd" fill="#FFFFFF" fill-opacity="1"/></g></g></g></svg>