<svg xmlns="http://www.w3.org/2000/svg" xmlns:xlink="http://www.w3.org/1999/xlink" fill="none" version="1.1" width="15.428571701049805" height="18" viewBox="0 0 15.428571701049805 18"><defs><clipPath id="master_svg0_1_753"><rect x="0" y="0" width="15.428571701049805" height="18" rx="0"/></clipPath></defs><g clip-path="url(#master_svg0_1_753)"><g style="mix-blend-mode:passthrough"><g><path d="M1.92857,0L10.2857,0L15.4286,5.14286L15.4286,16.0714C15.4286,17.1365,14.5651,18,13.5,18L1.92857,18C0.863451,18,0,17.1365,0,16.0714L0,1.92857C0,0.863451,0.863451,0,1.92857,0Z" fill-rule="evenodd" fill="#2FB8EE" fill-opacity="1"/></g><g style="opacity:0.8999999761581421;"><path d="M8.613001875,9.64286443359375L8.677281875,9.64543443359375C8.824911875,9.65920443359375,8.955781875,9.74612443359375,9.025711874999999,9.87686443359375L10.882281875,13.53215443359375C10.950771875000001,13.66223443359375,10.943391875,13.81921443359375,10.863001875,13.94229443359375C10.779451875,14.06859443359375,10.637701875000001,14.144064433593751,10.486281875,14.14286443359375L4.298782875,14.14286443359375C4.141849875,14.144314433593749,3.995764875,14.06296443359375,3.914354575,13.928794433593751C3.836192275,13.79727443359375,3.838677675,13.632964433593749,3.920783275,13.503864433593751L5.1576418749999995,11.11308443359375C5.2217118750000004,11.01298443359375,5.323461875,10.94298443359375,5.4398518750000004,10.91893443359375C5.557371875,10.89378443359375,5.680071875,10.91546443359375,5.781851875,10.97936443359375L6.770571875,11.60872443359375L8.285781875,9.80100443359375C8.382451875000001,9.68749443359375,8.529071875,9.62923443359375,8.677281875,9.64543443359375L8.613001875,9.64286443359375ZM6.487071875,7.71429443359375C6.971141875,7.71429443359375,7.363921875,8.10000943359375,7.363921875,8.575080433593751C7.363921875,9.050794433593751,6.971141875,9.43586443359375,6.487071875,9.43586443359375C6.003001875,9.43586443359375,5.610211875,9.05015443359375,5.610211875,8.57443643359375C5.610211875,8.09936543359375,6.0023518750000004,7.71429382051775,6.487071875,7.71429443359375Z" fill="#FFFFFF" fill-opacity="1"/></g><g style="opacity:0.4000000059604645;"><path d="M10.2857666015625,0L15.428626601562499,5.14286L12.2143366015625,5.14286C11.1492176015625,5.14286,10.2857666015625,4.27941,10.2857666015625,3.21429L10.2857666015625,0Z" fill-rule="evenodd" fill="#FFFFFF" fill-opacity="1"/></g></g></g></svg>