<?xml version="1.0" encoding="utf-8"?>
<!-- Generator: Adobe Illustrator 24.2.0, SVG Export Plug-In . SVG Version: 6.00 Build 0)  -->
<svg version="1.1" id="图层_1" xmlns="http://www.w3.org/2000/svg" xmlns:xlink="http://www.w3.org/1999/xlink" x="0px" y="0px"
	 viewBox="0 0 13.7 16" enable-background="new 0 0 13.7 16" xml:space="preserve">
<g>
	<g>
		<defs>
			<rect id="SVGID_1_" width="13.7" height="16"/>
		</defs>
		<clipPath id="SVGID_2_">
			<use xlink:href="#SVGID_1_"  overflow="visible"/>
		</clipPath>
		<g clip-path="url(#SVGID_2_)">
		</g>
	</g>
</g>
<g>
	<g>
		<path fill-rule="evenodd" clip-rule="evenodd" fill="#EC5B27" d="M9.1,0H1.7C0.8,0,0,0.8,0,1.7v12.6C0,15.2,0.8,16,1.7,16H12
			c0.9,0,1.7-0.8,1.7-1.7V4.6L9.1,0z M3.4,11.4H2.6v-1.3H1.7v1.4H0.9V8.2h0.8v1.3h0.9V8.2h0.8V11.4z M6.3,8.9H5.5v2.5H4.7V8.9H3.9
			V8.2h2.4V8.9z M10,11.5H9.2V9.9l-0.5,0.8H8.2L7.7,9.9v1.6H6.9V8.2h0.8l0.7,1.4l0.8-1.4H10V11.5z M12.9,11.5h-2.2V8.2h0.8v2.5h1.4
			V11.5z"/>
	</g>
	<g opacity="0.4">
		<path fill-rule="evenodd" clip-rule="evenodd" fill="#FFFFFF" d="M9.1,0l4.6,4.6h-2.9c-0.9,0-1.7-0.8-1.7-1.7C9.1,2.9,9.1,0,9.1,0
			z"/>
	</g>
</g>
</svg>
