<svg xmlns="http://www.w3.org/2000/svg" xmlns:xlink="http://www.w3.org/1999/xlink" fill="none" version="1.1" width="15.428571701049805" height="18" viewBox="0 0 15.428571701049805 18"><defs><clipPath id="master_svg0_12_275"><rect x="0" y="0" width="15.428571701049805" height="18" rx="0"/></clipPath></defs><g clip-path="url(#master_svg0_12_275)"><g style="mix-blend-mode:passthrough"><g><path d="M1.92857,0L10.2857,0L15.4286,5.14286L15.4286,16.0714C15.4286,17.1365,14.5651,18,13.5,18L1.92857,18C0.863451,18,0,17.1365,0,16.0714L0,1.92857C0,0.863451,0.863451,0,1.92857,0Z" fill-rule="evenodd" fill="#1576F2" fill-opacity="1"/></g><g style="opacity:0.4000000059604645;"><path d="M10.285736083984375,0L15.428596083984374,5.14286L12.214306083984376,5.14286C11.149187083984375,5.14286,10.285736083984375,4.27941,10.285736083984375,3.21429L10.285736083984375,0Z" fill-rule="evenodd" fill="#FFFFFF" fill-opacity="1"/></g></g><g><path d="M8.13095,13.40352C8.558309999999999,13.40352,8.90479,13.76089,8.90479,14.20175C8.90479,14.64261,8.558309999999999,15,8.13095,15L3.773834,15C3.346472,15,3,14.64261,3,14.20175C3,13.76089,3.346472,13.40352,3.773834,13.40352L8.13095,13.40352ZM11.22617,9.70175C11.65353,9.70175,12,10.05914,12,10.5C12,10.94086,11.65353,11.29825,11.22617,11.29825L3.773834,11.29825C3.346472,11.29825,3,10.94086,3,10.5C3,10.05914,3.346472,9.70175,3.773834,9.70175L11.22617,9.70175ZM11.22617,6C11.65353,6,12,6.35739,12,6.798248C12,7.23911,11.65353,7.59648,11.22617,7.59648L3.773809,7.59649C3.346447,7.59649,3,7.2391000000000005,3,6.798246C3,6.357387,3.346447,6,3.773809,6L11.22617,6Z" fill-rule="evenodd" fill="#FFFFFF" fill-opacity="1"/></g></g></svg>