<svg xmlns="http://www.w3.org/2000/svg" xmlns:xlink="http://www.w3.org/1999/xlink" fill="none" version="1.1" width="15.428571701049805" height="18" viewBox="0 0 15.428571701049805 18"><defs><clipPath id="master_svg0_1_95"><rect x="0" y="0" width="15.428571701049805" height="18" rx="0"/></clipPath></defs><g clip-path="url(#master_svg0_1_95)"><g style="mix-blend-mode:passthrough"><g><path d="M1.92857,0L10.2857,0L15.4286,5.14286L15.4286,16.0714C15.4286,17.1365,14.5651,18,13.5,18L1.92857,18C0.863451,18,0,17.1365,0,16.0714L0,1.92857C0,0.863451,0.863451,0,1.92857,0Z" fill-rule="evenodd" fill="#1576F2" fill-opacity="1"/></g><g style="opacity:0.4000000059604645;"><path d="M10.285736083984375,0L15.428596083984374,5.14286L12.214306083984376,5.14286C11.149187083984375,5.14286,10.285736083984375,4.27941,10.285736083984375,3.21429L10.285736083984375,0Z" fill-rule="evenodd" fill="#FFFFFF" fill-opacity="1"/></g></g><g style="mix-blend-mode:passthrough"><path d="M8.47055779296875,6.5L9.990737792968751,11.54232L11.39047779296875,6.5L12.79021779296875,6.5L10.511577792968751,14L9.38852779296875,14L7.84881779296875,9.100909999999999L6.3611877929687495,14L5.251157792968749,14L2.87160239296875,6.5L4.3689977929687505,6.5L5.86964779296875,11.54232L7.30844779296875,6.5L8.47055779296875,6.5Z" fill="#FFFFFF" fill-opacity="1"/></g></g></svg>