<svg xmlns="http://www.w3.org/2000/svg" xmlns:xlink="http://www.w3.org/1999/xlink" fill="none" version="1.1" width="15.428571701049805" height="18" viewBox="0 0 15.428571701049805 18"><defs><clipPath id="master_svg0_1_022"><rect x="0" y="0" width="15.428571701049805" height="18" rx="0"/></clipPath></defs><g clip-path="url(#master_svg0_1_022)"><g><g><path d="M1.92857,0L10.2857,0L15.4286,5.14286L15.4286,16.0714C15.4286,17.1365,14.5651,18,13.5,18L1.92857,18C0.863451,18,0,17.1365,0,16.0714L0,1.92857C0,0.863451,0.863451,0,1.92857,0Z" fill-rule="evenodd" fill="#51C45F" fill-opacity="1"/></g><g style="opacity:0.4000000059604645;"><path d="M10.2857666015625,0L15.428626601562499,5.14286L12.2143366015625,5.14286C11.1492176015625,5.14286,10.2857666015625,4.27941,10.2857666015625,3.21429L10.2857666015625,0Z" fill-rule="evenodd" fill="#FFFFFF" fill-opacity="1"/></g></g><g style="mix-blend-mode:passthrough"><path d="M10.5791455859375,6.5L8.0107855859375,10.158850000000001L10.6995855859375,14L8.899455585937499,14L7.118855585937499,11.36654L5.3284955859375,14L3.6488036859375,14L6.331095585937501,10.18815L3.7692465859375,6.5L5.5400755859375,6.5L7.2197655859375,8.98047L8.899455585937499,6.5L10.5791455859375,6.5Z" fill="#FFFFFF" fill-opacity="1"/></g></g></svg>