<svg xmlns="http://www.w3.org/2000/svg" xmlns:xlink="http://www.w3.org/1999/xlink" fill="none" version="1.1" width="15.428571701049805" height="18" viewBox="0 0 15.428571701049805 18"><defs><clipPath id="master_svg0_1_65"><rect x="0" y="0" width="15.428571701049805" height="18" rx="0"/></clipPath></defs><g clip-path="url(#master_svg0_1_65)"><g style="mix-blend-mode:passthrough"><g><path d="M1.92857,0L10.2857,0L15.4286,5.14286L15.4286,16.0714C15.4286,17.1365,14.5651,18,13.5,18L1.92857,18C0.863451,18,0,17.1365,0,16.0714L0,1.92857C0,0.863451,0.863451,0,1.92857,0Z" fill-rule="evenodd" fill="#F25644" fill-opacity="1"/></g><g style="opacity:0.4000000059604645;"><path d="M10.285736083984375,0L15.428596083984374,5.14286L12.214306083984376,5.14286C11.149187083984375,5.14286,10.285736083984375,4.27941,10.285736083984375,3.21429L10.285736083984375,0Z" fill-rule="evenodd" fill="#FFFFFF" fill-opacity="1"/></g></g><g style="mix-blend-mode:passthrough"><path d="M7.35286,6.5Q8.222000000000001,6.5,8.86979,6.8125Q9.52083,7.1217500000000005,9.87565,7.6849Q10.23047,8.24479,10.23047,9.003260000000001Q10.23047,9.7487,9.872399999999999,10.31185Q9.517579999999999,10.875,8.86654,11.180990000000001Q8.215489999999999,11.48372,7.34635,11.48372L6.27214,11.48372L6.27214,14L4.833333,14L4.833333,6.5L7.35286,6.5ZM7.22591,10.25Q7.93229,10.25,8.361979999999999,9.9375Q8.79167,9.621749999999999,8.79167,9.003260000000001Q8.79167,8.38477,8.361979999999999,8.05925Q7.93229,7.73372,7.22591,7.73372L6.27214,7.73372L6.27214,10.25L7.22591,10.25Z" fill="#FFFFFF" fill-opacity="1"/></g></g></svg>